<?xml version="1.0" encoding="UTF-8" standalone="no"?>
<svg
   xmlns:dc="http://purl.org/dc/elements/1.1/"
   xmlns:cc="http://creativecommons.org/ns#"
   xmlns:rdf="http://www.w3.org/1999/02/22-rdf-syntax-ns#"
   xmlns:svg="http://www.w3.org/2000/svg"
   xmlns="http://www.w3.org/2000/svg"
   viewBox="0 0 100.788 100.78573"
   height="100.78573"
   width="100.788"
   xml:space="preserve"
   id="svg2"
   version="1.1"><metadata
     id="metadata8"><rdf:RDF><cc:Work
         rdf:about=""><dc:format>image/svg+xml</dc:format><dc:type
           rdf:resource="http://purl.org/dc/dcmitype/StillImage" /></cc:Work></rdf:RDF></metadata><defs
     id="defs6"><clipPath
       id="clipPath18"
       clipPathUnits="userSpaceOnUse"><path
         id="path16"
         d="M 0,0 H 75.591 V 75.589 H 0 Z" /></clipPath></defs><g
     transform="matrix(1.3333333,0,0,-1.3333333,0,100.78573)"
     id="g10"><g
       id="g12"><g
         clip-path="url(#clipPath18)"
         id="g14"><g
           transform="translate(37.4117,26.7309)"
           id="g20"><path
             id="path22"
             style="fill:#009569;fill-opacity:1;fill-rule:nonzero;stroke:none"
             d="M 0,0 C 2.642,0.68 5.941,1.634 7.152,2.55 7.54,2.844 7.413,3.457 7.365,3.638 7.234,4.129 7.114,4.199 6.743,4.199 5.066,4.165 0.934,2.795 -0.83,2.209 -0.876,2.194 -0.921,2.179 -0.964,2.165 -5.369,0.988 -3.322,3.987 -3.322,3.987 c 0.026,0.027 0.053,0.055 0.081,0.083 0.311,0.308 0.716,0.562 1.144,0.831 l 0.222,0.14 c 0.54,0.343 1.19,0.704 1.641,0.946 l 0.493,0.261 c 0.346,0.182 0.694,0.364 1.105,0.597 0.678,0.384 1.413,0.838 2.187,1.352 0.936,0.62 1.988,1.37 2.706,1.889 0.757,0.547 1.462,1.069 1.775,1.451 0.228,0.277 0.199,0.417 0.179,0.51 C 8.176,12.213 8.087,12.354 7.954,12.455 7.809,12.565 7.66,12.601 7.501,12.561 7.216,12.492 6.788,12.195 6.445,11.956 5.972,11.628 5.603,11.377 5.119,11.076 4.698,10.813 4.184,10.511 3.655,10.2 l -0.2,-0.117 C 3.292,9.987 3.205,9.927 3.118,9.869 2.881,9.708 2.658,9.557 1.506,8.959 -0.124,8.113 -1.388,7.642 -3.327,7.158 -3.463,7.115 -3.586,7.094 -3.705,7.094 h -0.526 l -0.275,0.513 c -0.242,0.562 0.202,1.031 0.391,1.231 0.355,0.375 1.033,0.964 1.697,1.535 l 0.254,0.219 c 0.568,0.489 1.148,0.988 1.839,1.609 0.77,0.693 1.681,1.54 2.535,2.334 l 0.296,0.275 c 0.796,0.739 1.526,1.418 2.078,1.949 0.45,0.433 0.863,0.844 0.971,1.105 0.02,0.047 0.078,0.185 -0.024,0.424 C 5.474,18.421 5.4,18.515 5.28,18.607 5.168,18.692 5.047,18.751 4.949,18.768 4.81,18.776 4.726,18.755 4.625,18.719 4.465,18.662 4.27,18.557 3.845,18.237 3.592,18.047 3.277,17.796 2.904,17.498 2.564,17.227 2.177,16.917 1.744,16.58 1.292,16.228 0.789,15.844 0.283,15.457 -0.235,15.062 -0.757,14.664 -1.232,14.294 -2.149,13.58 -2.898,12.963 -3.59,12.352 l -0.527,-0.471 c -0.516,-0.463 -0.961,-0.864 -1.307,-1.092 -0.886,-0.583 -1.706,-0.215 -1.811,0.544 -0.051,0.404 0.106,0.814 0.495,1.298 0.174,0.218 0.41,0.464 0.703,0.767 l 0.373,0.388 c 0.233,0.248 0.495,0.533 0.772,0.834 0.252,0.273 0.515,0.56 0.781,0.844 0.67,0.716 1.233,1.289 1.827,1.859 0.628,0.604 1.386,1.294 2.078,1.893 l 0.274,0.236 c 0.468,0.401 0.873,0.747 1.082,1.028 0.15,0.201 0.212,0.386 0.183,0.548 -0.03,0.171 -0.152,0.285 -0.249,0.349 C 0.905,21.496 0.7,21.525 0.448,21.47 0.103,21.395 -0.409,21.142 -0.956,20.778 -1.383,20.493 -1.761,20.187 -2.239,19.8 l -0.75,-0.602 C -3.511,18.781 -4.11,18.302 -4.709,17.8 -5.571,17.078 -6.343,16.39 -7.067,15.695 -7.418,15.36 -7.765,15.017 -8.091,14.693 -8.503,14.285 -8.884,13.909 -9.2,13.618 c -0.586,-0.537 -0.992,-0.823 -1.672,-1.179 -0.591,-0.309 -1.409,-0.687 -2.135,-0.987 -0.857,-0.354 -1.411,-0.526 -1.796,-0.556 l -0.133,-0.005 c -0.44,0 -0.705,0.187 -0.849,0.344 -0.144,0.157 -0.308,0.434 -0.271,0.867 0.027,0.323 0.155,0.648 0.349,1.14 l 0.822,2.11 c 0.222,0.567 0.432,1.101 0.588,1.602 0.184,0.586 0.27,1.053 0.288,1.562 0.022,0.614 -0.055,1.242 -0.206,1.679 -0.159,0.459 -0.407,0.722 -0.588,0.861 -0.098,0.076 -0.242,0.166 -0.369,0.166 -0.17,-0.025 -0.352,-0.136 -0.482,-0.333 -0.139,-0.209 -0.242,-0.546 -0.362,-0.935 l -0.093,-0.298 c -0.177,-0.56 -0.416,-1.229 -0.711,-1.987 -0.242,-0.622 -0.571,-1.44 -0.981,-2.239 -0.412,-0.805 -0.898,-1.584 -1.319,-2.24 l -0.424,-0.654 c -0.338,-0.52 -0.672,-1.034 -0.944,-1.491 -0.38,-0.637 -0.615,-1.121 -0.839,-1.727 -0.225,-0.614 -0.447,-1.385 -0.639,-2.233 -0.162,-0.714 -0.325,-1.588 -0.438,-2.339 l -0.049,-0.345 c -0.064,-0.455 -0.11,-0.784 -0.25,-1.111 -0.2,-0.466 -0.538,-0.797 -0.843,-1.06 -0.329,-0.285 -0.732,-0.581 -1.082,-0.833 -0.217,-0.156 -1.678,-1.032 -5.089,-3.066 -1.122,-0.669 -2.271,-1.355 -2.91,-1.74 0.442,-1.431 1.918,-5.418 5.453,-8.723 0.666,0.345 2.716,1.556 8.896,5.813 l 0.224,0.153 c 0.715,0.485 1.336,0.763 1.954,0.877 0.261,0.048 0.522,0.066 0.822,0.084 0.324,0.02 0.692,0.042 1.168,0.127 0.895,0.158 2.173,0.531 3.507,1.023 1.263,0.466 2.74,1.104 3.854,1.664 0.392,0.196 0.723,0.376 1.032,0.543 0.519,0.281 1.009,0.547 1.609,0.798 0.221,0.093 0.688,0.207 1.816,0.481 0.485,0.118 1.071,0.26 1.711,0.421 z m -27.324,-13.845 h -0.004 -0.304 l -0.268,0.213 c -5.042,4.485 -6.383,10.172 -6.438,10.412 l -0.123,0.54 0.462,0.305 c 0.198,0.13 1.445,0.875 3.463,2.078 1.996,1.19 4.729,2.82 4.978,2.993 0.318,0.23 0.685,0.499 0.968,0.743 0.236,0.205 0.362,0.348 0.418,0.48 0.056,0.13 0.088,0.358 0.136,0.704 l 0.051,0.36 c 0.119,0.788 0.291,1.705 0.461,2.456 0.21,0.926 0.445,1.744 0.698,2.431 0.256,0.698 0.537,1.275 0.966,1.994 0.281,0.472 0.627,1.004 0.976,1.542 l 0.419,0.648 c 0.401,0.623 0.861,1.36 1.242,2.104 0.374,0.73 0.671,1.466 0.914,2.09 0.282,0.727 0.51,1.362 0.677,1.891 l 0.089,0.284 c 0.149,0.488 0.291,0.948 0.556,1.348 0.361,0.545 0.904,0.918 1.491,1.021 0.584,0.103 1.142,-0.063 1.67,-0.471 0.506,-0.391 0.894,-0.946 1.121,-1.603 0.216,-0.624 0.323,-1.447 0.293,-2.259 -0.023,-0.65 -0.134,-1.262 -0.36,-1.983 -0.173,-0.554 -0.393,-1.114 -0.626,-1.708 l -0.805,-2.069 c 0.161,0.059 0.354,0.134 0.586,0.23 0.674,0.278 1.461,0.642 2.004,0.926 0.493,0.258 0.803,0.455 1.333,0.941 0.303,0.278 0.668,0.64 1.064,1.033 0.333,0.329 0.686,0.679 1.043,1.021 0.751,0.719 1.549,1.43 2.439,2.176 0.608,0.509 1.217,0.996 1.747,1.42 l 0.742,0.597 c 0.511,0.413 0.915,0.739 1.403,1.065 0.506,0.337 1.255,0.771 1.948,0.923 0.675,0.149 1.333,0.032 1.867,-0.326 0.5,-0.335 0.832,-0.831 0.933,-1.396 C 2.981,20.887 2.96,20.236 2.432,19.526 2.115,19.101 1.648,18.701 1.107,18.238 L 0.839,18.007 c -0.303,-0.261 -0.617,-0.541 -0.928,-0.823 0.295,0.226 0.582,0.447 0.851,0.656 0.428,0.334 0.81,0.639 1.145,0.906 0.388,0.31 0.715,0.571 0.977,0.768 0.507,0.382 0.844,0.581 1.204,0.71 0.401,0.143 0.765,0.18 1.131,0.119 0.354,-0.061 0.71,-0.222 1.031,-0.466 0.341,-0.261 0.586,-0.576 0.751,-0.963 0.239,-0.56 0.25,-1.136 0.03,-1.663 C 6.804,16.704 6.333,16.225 5.692,15.608 5.135,15.071 4.397,14.386 3.594,13.639 L 3.298,13.364 c -0.861,-0.8 -1.778,-1.652 -2.555,-2.351 -0.59,-0.531 -1.1,-0.973 -1.59,-1.395 0.522,0.215 1.042,0.461 1.617,0.759 1.069,0.555 1.264,0.688 1.453,0.815 0.108,0.073 0.217,0.147 0.421,0.267 l 0.201,0.119 c 0.516,0.303 1.017,0.597 1.43,0.855 0.46,0.285 0.808,0.523 1.221,0.81 0.513,0.357 1.053,0.732 1.628,0.871 0.619,0.152 1.275,0.012 1.798,-0.388 0.436,-0.331 0.74,-0.81 0.853,-1.349 C 9.913,11.725 9.742,11.1 9.267,10.522 8.831,9.992 8.101,9.447 7.193,8.791 6.464,8.263 5.392,7.501 4.435,6.865 3.63,6.331 2.862,5.857 2.152,5.455 1.725,5.213 1.363,5.023 1.002,4.833 L 0.52,4.578 C 0.228,4.421 -0.153,4.212 -0.524,3.993 1.7,4.725 5.01,5.763 6.679,5.796 H 6.681 C 7.872,5.796 8.6,5.209 8.909,4.05 9.211,2.917 8.914,1.88 8.116,1.276 6.388,-0.031 2.033,-1.163 -1.914,-2.122 -2.619,-2.293 -3.348,-2.47 -3.495,-2.526 -4.017,-2.745 -4.452,-2.98 -4.956,-3.253 c -0.322,-0.174 -0.667,-0.361 -1.075,-0.566 -1.182,-0.594 -2.684,-1.243 -4.019,-1.735 -1.418,-0.523 -2.796,-0.924 -3.781,-1.098 -0.566,-0.1 -1.001,-0.127 -1.35,-0.148 -0.23,-0.014 -0.431,-0.024 -0.63,-0.06 -0.398,-0.074 -0.813,-0.267 -1.346,-0.628 l -0.214,-0.147 c -8.985,-6.188 -9.579,-6.21 -9.953,-6.21" /></g><g
           transform="translate(40.2122,56.1634)"
           id="g24"><path
             id="path26"
             style="fill:#009569;fill-opacity:1;fill-rule:nonzero;stroke:none"
             d="M 0,0 C -1.345,-0.566 -2.899,0.067 -3.465,1.411 -4.032,2.756 -3.399,4.31 -2.054,4.876 -0.709,5.443 0.845,4.81 1.411,3.466 1.978,2.121 1.345,0.567 0,0 M -1.426,3.387 C -1.95,3.166 -2.196,2.561 -1.976,2.039 -1.756,1.515 -1.151,1.27 -0.628,1.49 c 0.524,0.22 0.77,0.825 0.549,1.348 -0.22,0.522 -0.824,0.769 -1.347,0.549" /></g><g
           transform="translate(47.6165,61.183)"
           id="g28"><path
             id="path30"
             style="fill:#009569;fill-opacity:1;fill-rule:nonzero;stroke:none"
             d="M 0,0 C -2.177,-0.917 -4.695,0.108 -5.612,2.286 -6.529,4.463 -5.504,6.981 -3.327,7.898 -1.149,8.815 1.368,7.79 2.285,5.612 3.203,3.434 2.177,0.917 0,0 M -2.699,6.408 C -4.055,5.837 -4.694,4.269 -4.123,2.913 -3.552,1.557 -1.983,0.919 -0.628,1.49 0.728,2.061 1.367,3.629 0.796,4.985 0.225,6.341 -1.343,6.979 -2.699,6.408" /></g><g
           transform="translate(53.6129,45.4074)"
           id="g32"><path
             id="path34"
             style="fill:#009569;fill-opacity:1;fill-rule:nonzero;stroke:none"
             d="m 0,0 c -0.189,0 -0.375,-0.038 -0.551,-0.112 -0.35,-0.148 -0.622,-0.423 -0.765,-0.775 -0.144,-0.351 -0.141,-0.738 0.007,-1.088 0.222,-0.529 0.737,-0.871 1.311,-0.871 0.189,0 0.375,0.038 0.552,0.112 0.35,0.147 0.621,0.423 0.764,0.774 0.143,0.352 0.141,0.739 -0.006,1.089 C 1.089,-0.342 0.574,0 0,0 m 0.002,-4.044 v 0 c -1.057,0 -2.005,0.629 -2.416,1.604 -0.272,0.645 -0.276,1.357 -0.012,2.005 0.264,0.649 0.765,1.156 1.41,1.427 0.324,0.137 0.666,0.206 1.016,0.206 1.057,0 2.006,-0.63 2.416,-1.604 C 2.688,-1.051 2.692,-1.763 2.428,-2.411 2.164,-3.06 1.663,-3.567 1.019,-3.839 0.694,-3.975 0.352,-4.044 0.002,-4.044" /></g><g
           transform="translate(38.3608,37.2016)"
           id="g36"><path
             id="path38"
             style="fill:#009569;fill-opacity:1;fill-rule:nonzero;stroke:none"
             d="m 0,0 c -0.267,0.009 -0.534,0.014 -0.801,0.014 -0.347,-0.306 -0.68,-0.596 -0.995,-0.867 0.522,0.215 1.041,0.461 1.617,0.759 C -0.113,-0.059 -0.06,-0.031 0,0" /></g><g
           transform="translate(24.9996,45.19)"
           id="g40"><path
             id="path42"
             style="fill:#009569;fill-opacity:1;fill-rule:nonzero;stroke:none"
             d="m 0,0 c -0.017,-0.498 -0.107,-0.987 -0.24,-1.507 1.304,0.054 2.846,0.074 4.671,0.075 0.575,0.544 1.187,1.09 1.84,1.648 H 6.064 C 5.56,0.219 5.032,0.222 4.476,0.222 2.745,0.221 1.266,0.206 -0.001,0.161 -0.001,0.107 0.002,0.054 0,0" /></g><g
           transform="translate(60.1697,31.7643)"
           id="g44"><path
             id="path46"
             style="fill:#009569;fill-opacity:1;fill-rule:nonzero;stroke:none"
             d="M 0,0 C -0.515,-0.217 -1.108,0.025 -1.324,0.539 -1.541,1.053 -1.299,1.646 -0.785,1.863 -0.271,2.08 0.322,1.838 0.539,1.324 0.756,0.809 0.514,0.217 0,0 m -4.674,-2.619 c -0.973,-0.41 -2.093,0.047 -2.503,1.019 -0.41,0.973 0.046,2.093 1.019,2.503 0.973,0.41 2.093,-0.047 2.503,-1.02 0.41,-0.972 -0.047,-2.093 -1.019,-2.502 m 7.154,9.01 -3.025,7.18 c -0.178,0.63 -0.446,1.252 -0.826,1.842 -1.473,2.285 -4.048,3.597 -6.887,3.508 -2.448,-0.077 -4.554,-0.538 -6.829,-1.497 -1.055,-0.444 -2.052,-0.955 -3.018,-1.449 -0.604,-0.31 -1.214,-0.622 -1.848,-0.924 -0.02,-0.01 -0.04,-0.017 -0.061,-0.027 -0.075,-0.171 -0.177,-0.349 -0.312,-0.532 -0.317,-0.425 -0.784,-0.825 -1.325,-1.288 l -0.268,-0.23 c -0.203,-0.175 -0.414,-0.366 -0.624,-0.553 0.023,0.005 0.045,0.011 0.067,0.016 0.161,0.124 0.328,0.252 0.48,0.37 0.427,0.333 0.81,0.639 1.145,0.906 0.388,0.31 0.715,0.571 0.977,0.768 0.507,0.381 0.844,0.581 1.204,0.71 0.401,0.143 0.765,0.18 1.131,0.119 0.327,-0.056 0.654,-0.207 0.955,-0.421 0.707,0.357 1.406,0.702 2.139,1.011 2.079,0.876 4.003,1.298 6.239,1.367 2.254,0.072 4.289,-0.957 5.445,-2.75 0.895,-1.39 1.055,-2.979 0.429,-4.251 -1.169,-2.373 -3.472,-4.558 -5.867,-5.567 -0.895,-0.377 -1.764,-0.58 -2.586,-0.602 -1.054,-0.029 -2.375,0.158 -3.798,0.394 -0.297,-0.232 -0.62,-0.472 -0.982,-0.733 -0.729,-0.528 -1.801,-1.291 -2.758,-1.926 -0.805,-0.534 -1.573,-1.009 -2.283,-1.41 -0.427,-0.243 -0.789,-0.433 -1.15,-0.622 l -0.482,-0.255 c -0.292,-0.157 -0.673,-0.366 -1.044,-0.585 2.224,0.731 5.534,1.769 7.203,1.803 h 0.002 c 1.191,0 1.919,-0.588 2.228,-1.746 0.302,-1.133 0.005,-2.17 -0.793,-2.774 -0.553,-0.418 -1.377,-0.819 -2.368,-1.201 1.62,-0.137 3.231,-0.411 4.736,-0.67 1.908,-0.329 3.71,-0.639 5.187,-0.598 1.026,0.029 2.097,0.275 3.181,0.731 2.784,1.173 5.354,3.61 6.709,6.361 C 3.634,2.555 3.501,4.59 2.48,6.391" /></g><g
           transform="translate(14.5854,36.6009)"
           id="g48"><path
             id="path50"
             style="fill:#009569;fill-opacity:1;fill-rule:nonzero;stroke:none"
             d="M 0,0 C 0.257,0.698 0.537,1.275 0.966,1.994 1.248,2.466 1.593,2.998 1.942,3.536 L 2.361,4.184 C 2.762,4.807 3.223,5.544 3.603,6.288 3.814,6.7 3.996,7.108 4.162,7.502 1.94,6.22 -0.881,3.428 -0.221,-0.654 -0.149,-0.426 -0.076,-0.205 0,0" /></g><g
           transform="translate(47.7548,50.0836)"
           id="g52"><path
             id="path54"
             style="fill:#009569;fill-opacity:1;fill-rule:nonzero;stroke:none"
             d="M 0,0 C 0.514,0.642 0.678,1.532 0.337,2.342 -0.159,3.519 -1.519,4.073 -2.695,3.577 -3.872,3.082 -4.426,1.721 -3.931,0.545 c 0.29,-0.689 0.878,-1.155 1.549,-1.332 -0.097,-0.04 -0.192,-0.067 -0.29,-0.108 -0.536,-0.226 -1.057,-0.469 -1.567,-0.719 -0.498,0.396 -0.918,0.904 -1.182,1.531 -0.841,1.998 0.1,4.309 2.098,5.15 C -1.325,5.909 0.986,4.968 1.827,2.97 2.184,2.123 2.204,1.226 1.976,0.402 1.307,0.307 0.65,0.17 0,0" /></g><g
           transform="translate(45.1928,20.2765)"
           id="g56"><path
             id="path58"
             style="fill:#009569;fill-opacity:1;fill-rule:nonzero;stroke:none"
             d="m 0,0 c -1.285,0.058 -3.781,-1.703 -6.677,-4.637 -2.382,-2.414 -3.188,-4.741 -3.672,-5.063 -0.483,-0.322 -1.442,2.032 -2.227,2.703 -0.673,0.574 -2.42,-0.292 -2.294,-0.894 0.083,-0.395 0.812,-0.271 1.286,-0.976 0.714,-1.06 2.316,-4.008 2.763,-4.267 0.514,-0.297 1.82,0.744 1.979,1.315 0.316,1.137 1.428,3.429 1.924,4.248 2.352,3.888 5.531,6.415 6.465,6.724 C -0.357,-0.815 0.309,-0.014 0,0" /></g><g
           transform="translate(74.5919,37.7945)"
           id="g60"><path
             id="path62"
             style="fill:none;stroke:#009569;stroke-width:1.99699998;stroke-linecap:butt;stroke-linejoin:miter;stroke-miterlimit:10;stroke-dasharray:none;stroke-opacity:1"
             d="m 0,0 c 0,-20.323 -16.474,-36.796 -36.796,-36.796 -20.323,0 -36.797,16.473 -36.797,36.796 0,20.322 16.474,36.796 36.797,36.796 C -16.474,36.796 0,20.322 0,0 Z" /></g></g></g></g></svg>