<?xml version="1.0" encoding="UTF-8" standalone="no"?>
<svg
   xmlns:dc="http://purl.org/dc/elements/1.1/"
   xmlns:cc="http://creativecommons.org/ns#"
   xmlns:rdf="http://www.w3.org/1999/02/22-rdf-syntax-ns#"
   xmlns:svg="http://www.w3.org/2000/svg"
   xmlns="http://www.w3.org/2000/svg"
   viewBox="0 0 94.488136 94.487198"
   height="94.487198"
   width="94.488136"
   xml:space="preserve"
   id="svg2"
   version="1.1"><metadata
     id="metadata8"><rdf:RDF><cc:Work
         rdf:about=""><dc:format>image/svg+xml</dc:format><dc:type
           rdf:resource="http://purl.org/dc/dcmitype/StillImage" /></cc:Work></rdf:RDF></metadata><defs
     id="defs6"><clipPath
       id="clipPath18"
       clipPathUnits="userSpaceOnUse"><path
         id="path16"
         d="M 0,70.865 H 70.866 V 0 H 0 Z" /></clipPath></defs><g
     transform="matrix(1.3333333,0,0,-1.3333333,0,94.4872)"
     id="g10"><g
       id="g12"><g
         clip-path="url(#clipPath18)"
         id="g14"><g
           transform="translate(35.4338,68.9928)"
           id="g20"><path
             id="path22"
             style="fill:#525252;fill-opacity:1;fill-rule:nonzero;stroke:none"
             d="m 0,0 c -18.505,0 -33.561,-15.055 -33.561,-33.56 0,-18.505 15.056,-33.56 33.561,-33.56 18.505,0 33.56,15.055 33.56,33.56 C 33.56,-15.055 18.505,0 0,0 m 0,-68.993 c -19.538,0 -35.434,15.895 -35.434,35.433 0,19.537 15.896,35.433 35.434,35.433 19.538,0 35.432,-15.896 35.432,-35.433 0,-19.538 -15.894,-35.433 -35.432,-35.433" /></g><g
           transform="translate(17.427,36.049)"
           id="g24"><path
             id="path26"
             style="fill:#525252;fill-opacity:1;fill-rule:nonzero;stroke:none"
             d="M 0,0 C 0.381,-1.928 1.259,-5.109 2.556,-5.688 2.897,-5.84 3.244,-5.789 3.643,-5.525 4.044,-5.26 4.228,-4.962 4.222,-4.588 4.199,-3.168 1.622,-1.109 0,0 m 2.936,-6.567 c -0.279,0 -0.518,0.068 -0.706,0.152 -2.199,0.983 -3.081,6.558 -3.174,7.191 L -1.069,1.62 -0.342,1.173 C 0.203,0.839 4.98,-2.167 5.018,-4.576 5.025,-5.025 4.869,-5.67 4.082,-6.189 3.655,-6.471 3.267,-6.567 2.936,-6.567" /></g><g
           transform="translate(28.8448,41.055)"
           id="g28"><path
             id="path30"
             style="fill:#525252;fill-opacity:1;fill-rule:nonzero;stroke:none"
             d="m 0,0 c 0.381,-1.928 1.259,-5.109 2.555,-5.688 0.341,-0.152 0.687,-0.1 1.087,0.163 0.401,0.265 0.585,0.563 0.579,0.937 C 4.199,-3.168 1.622,-1.109 0,0 m 2.935,-6.567 c -0.279,0 -0.518,0.068 -0.706,0.152 -2.199,0.983 -3.08,6.558 -3.173,7.191 L -1.069,1.62 -0.342,1.173 C 0.203,0.839 4.98,-2.167 5.018,-4.576 5.025,-5.025 4.868,-5.67 4.081,-6.189 3.654,-6.471 3.266,-6.567 2.935,-6.567" /></g><g
           transform="translate(27.2173,31.638)"
           id="g32"><path
             id="path34"
             style="fill:#525252;fill-opacity:1;fill-rule:nonzero;stroke:none"
             d="m 0,0 c 0.381,-1.927 1.259,-5.107 2.555,-5.687 0.341,-0.152 0.687,-0.099 1.087,0.164 0.401,0.264 0.585,0.562 0.579,0.936 C 4.199,-3.168 1.622,-1.109 0,0 m 2.935,-6.566 c -0.279,0 -0.518,0.069 -0.706,0.153 -2.199,0.983 -3.08,6.557 -3.173,7.189 L -1.069,1.621 -0.342,1.174 C 0.203,0.839 4.98,-2.165 5.018,-4.574 5.025,-5.024 4.868,-5.669 4.081,-6.188 3.654,-6.469 3.266,-6.566 2.935,-6.566" /></g><g
           transform="translate(29.8024,48.8468)"
           id="g36"><path
             id="path38"
             style="fill:#525252;fill-opacity:1;fill-rule:nonzero;stroke:none"
             d="m 0,0 c 0.381,-1.928 1.259,-5.108 2.555,-5.687 0.342,-0.151 0.687,-0.101 1.088,0.163 0.401,0.264 0.584,0.562 0.579,0.937 C 4.199,-3.168 1.622,-1.109 0,0 m 2.935,-6.567 c -0.279,0 -0.518,0.069 -0.705,0.153 -2.2,0.984 -3.081,6.558 -3.174,7.19 L -1.069,1.62 -0.342,1.173 C 0.203,0.839 4.98,-2.167 5.018,-4.575 5.025,-5.025 4.869,-5.67 4.082,-6.188 3.655,-6.47 3.267,-6.567 2.935,-6.567" /></g><g
           transform="translate(10.431,33.057)"
           id="g40"><path
             id="path42"
             style="fill:#525252;fill-opacity:1;fill-rule:nonzero;stroke:none"
             d="m 0,0 c 0.381,-1.927 1.259,-5.107 2.555,-5.687 0.343,-0.155 0.688,-0.1 1.088,0.163 0.401,0.264 0.584,0.562 0.579,0.937 C 4.199,-3.169 1.622,-1.109 0,0 m 2.936,-6.567 c -0.28,0 -0.519,0.069 -0.706,0.153 -2.2,0.984 -3.081,6.558 -3.174,7.19 L -1.069,1.621 -0.342,1.174 C 0.203,0.839 4.98,-2.166 5.018,-4.575 5.025,-5.025 4.869,-5.67 4.082,-6.188 3.655,-6.47 3.267,-6.567 2.936,-6.567" /></g><g
           transform="translate(20.9355,42.7501)"
           id="g44"><path
             id="path46"
             style="fill:#525252;fill-opacity:1;fill-rule:nonzero;stroke:none"
             d="m 0,0 c 0.381,-1.927 1.259,-5.107 2.555,-5.687 0.34,-0.151 0.687,-0.101 1.088,0.164 0.401,0.264 0.585,0.561 0.579,0.935 C 4.2,-3.169 1.622,-1.109 0,0 m 2.935,-6.567 c -0.279,0 -0.518,0.069 -0.705,0.153 -2.2,0.984 -3.081,6.558 -3.174,7.19 L -1.069,1.621 -0.342,1.174 C 0.203,0.839 4.98,-2.166 5.018,-4.574 5.025,-5.024 4.869,-5.669 4.082,-6.188 3.655,-6.47 3.267,-6.567 2.935,-6.567" /></g><g
           transform="translate(58.638,28.949)"
           id="g48"><path
             id="path50"
             style="fill:#525252;fill-opacity:1;fill-rule:nonzero;stroke:none"
             d="m 0,0 c -1.354,-1.741 -3.304,-3.032 -5.625,-3.522 -2.606,-0.55 -5.193,0.011 -7.266,1.36 l -0.667,0.477 c -1.741,1.354 -3.032,3.303 -3.522,5.625 -0.546,2.59 -0.006,5.181 1.355,7.27 l 0.476,0.667 c 0.89,1.14 2.041,2.096 3.416,2.761 L -8.427,7.836 C -8.344,7.669 -8.159,7.58 -7.976,7.619 -7.794,7.657 -7.661,7.814 -7.652,8 l 0.367,7.598 c 1.813,-0.062 3.504,-0.624 4.938,-1.557 l 0.668,-0.475 C 0.071,12.204 1.349,10.245 1.837,7.933 2.387,5.326 1.826,2.74 0.477,0.666 Z m -7.408,16.421 c -0.088,0.002 -0.267,0.002 -0.267,0.002 -0.218,0.001 -0.398,-0.171 -0.409,-0.39 l -0.311,-6.432 -2.883,5.758 c -0.098,0.196 -0.332,0.28 -0.532,0.191 0,0 -0.194,-0.086 -0.29,-0.131 -4.412,-2.084 -6.789,-6.874 -5.782,-11.648 0.564,-2.672 2.106,-4.892 4.172,-6.365 0.002,-0.001 0.003,-0.003 0.004,-0.004 0.002,-0.002 0.005,-0.002 0.007,-0.003 2.306,-1.64 5.262,-2.352 8.243,-1.723 2.673,0.564 4.894,2.106 6.367,4.173 l 0.001,0.002 c 0.001,0 0.001,0 0.002,0.001 0,0 0,0.001 0.001,0.002 1.642,2.307 2.353,5.266 1.724,8.248 -1.013,4.798 -5.144,8.219 -10.047,8.319" /></g><g
           transform="translate(60.8372,35.2792)"
           id="g52"><path
             id="path54"
             style="fill:#525252;fill-opacity:1;fill-rule:nonzero;stroke:none"
             d="m 0,0 h -2.059 c -0.226,0 -0.41,-0.183 -0.41,-0.41 0,-0.226 0.184,-0.409 0.41,-0.409 H 0 Z" /></g><g
           transform="translate(41.1575,34.4597)"
           id="g56"><path
             id="path58"
             style="fill:#525252;fill-opacity:1;fill-rule:nonzero;stroke:none"
             d="M 0,0 H 2.051 C 2.277,0 2.46,0.183 2.46,0.41 2.46,0.636 2.277,0.819 2.051,0.819 H 0.002 Z" /></g><g
           transform="translate(51.403,25.0702)"
           id="g60"><path
             id="path62"
             style="fill:#525252;fill-opacity:1;fill-rule:nonzero;stroke:none"
             d="M 0,0 V 2.051 C 0,2.277 -0.183,2.46 -0.41,2.46 -0.636,2.46 -0.819,2.277 -0.819,2.051 V 0.002 Z" /></g></g></g></g></svg>