<?xml version="1.0" encoding="UTF-8" standalone="no"?>
<svg
   xmlns:dc="http://purl.org/dc/elements/1.1/"
   xmlns:cc="http://creativecommons.org/ns#"
   xmlns:rdf="http://www.w3.org/1999/02/22-rdf-syntax-ns#"
   xmlns:svg="http://www.w3.org/2000/svg"
   xmlns="http://www.w3.org/2000/svg"
   viewBox="0 0 100.788 100.78547"
   height="100.78547"
   width="100.788"
   xml:space="preserve"
   id="svg2"
   version="1.1"><metadata
     id="metadata8"><rdf:RDF><cc:Work
         rdf:about=""><dc:format>image/svg+xml</dc:format><dc:type
           rdf:resource="http://purl.org/dc/dcmitype/StillImage" /></cc:Work></rdf:RDF></metadata><defs
     id="defs6"><clipPath
       id="clipPath18"
       clipPathUnits="userSpaceOnUse"><path
         id="path16"
         d="M 0,0 H 75.591 V 75.589 H 0 Z" /></clipPath></defs><g
     transform="matrix(1.3333333,0,0,-1.3333333,0,100.78547)"
     id="g10"><g
       id="g12"><g
         clip-path="url(#clipPath18)"
         id="g14"><g
           transform="translate(37.7953,73.592)"
           id="g20"><path
             id="path22"
             style="fill:#009569;fill-opacity:1;fill-rule:nonzero;stroke:none"
             d="m 0,0 c -19.739,0 -35.798,-16.059 -35.798,-35.797 0,-19.739 16.059,-35.798 35.798,-35.798 19.739,0 35.798,16.059 35.798,35.798 C 35.798,-16.059 19.739,0 0,0 m 0,-73.592 c -20.84,0 -37.795,16.955 -37.795,37.795 0,20.84 16.955,37.794 37.795,37.794 20.84,0 37.795,-16.954 37.795,-37.794 0,-20.84 -16.955,-37.795 -37.795,-37.795" /></g><g
           transform="translate(23.7177,52.0721)"
           id="g24"><path
             id="path26"
             style="fill:#009569;fill-opacity:1;fill-rule:nonzero;stroke:none"
             d="m 0,0 c 0,-1.296 -1.051,-2.347 -2.347,-2.347 -1.296,0 -2.347,1.051 -2.347,2.347 0,1.296 1.051,2.347 2.347,2.347 C -1.051,2.347 0,1.296 0,0" /></g><g
           transform="translate(14.9297,49.0511)"
           id="g28"><path
             id="path30"
             style="fill:#009569;fill-opacity:1;fill-rule:nonzero;stroke:none"
             d="m 0,0 c -1.074,0 -1.948,-0.873 -1.948,-1.948 0,-1.074 0.874,-1.947 1.948,-1.947 1.074,0 1.948,0.873 1.948,1.947 C 1.948,-0.873 1.074,0 0,0 m 0,-4.694 c -1.514,0 -2.747,1.232 -2.747,2.746 0,1.515 1.233,2.747 2.747,2.747 1.514,0 2.747,-1.232 2.747,-2.747 0,-1.514 -1.233,-2.746 -2.747,-2.746" /></g><g
           transform="translate(19.6237,31.7815)"
           id="g32"><path
             id="path34"
             style="fill:#009569;fill-opacity:1;fill-rule:nonzero;stroke:none"
             d="m 0,0 c -1.074,0 -1.948,-0.874 -1.948,-1.948 0,-1.074 0.874,-1.947 1.948,-1.947 1.074,0 1.948,0.873 1.948,1.947 C 1.948,-0.874 1.074,0 0,0 m 0,-4.694 c -1.514,0 -2.747,1.232 -2.747,2.746 0,1.515 1.233,2.747 2.747,2.747 1.514,0 2.747,-1.232 2.747,-2.747 0,-1.514 -1.233,-2.746 -2.747,-2.746" /></g><g
           transform="translate(21.3708,38.7938)"
           id="g36"><path
             id="path38"
             style="fill:#009569;fill-opacity:1;fill-rule:nonzero;stroke:none"
             d="m 0,0 c -0.589,0 -1.068,-0.479 -1.068,-1.068 0,-0.589 0.479,-1.069 1.068,-1.069 0.589,0 1.068,0.48 1.068,1.069 C 1.068,-0.479 0.589,0 0,0 m 0,-2.936 c -1.03,0 -1.867,0.838 -1.867,1.868 0,1.029 0.837,1.867 1.867,1.867 1.03,0 1.867,-0.838 1.867,-1.867 0,-1.03 -0.837,-1.868 -1.867,-1.868" /></g><g
           transform="translate(29.4575,36.7026)"
           id="g40"><path
             id="path42"
             style="fill:#009569;fill-opacity:1;fill-rule:nonzero;stroke:none"
             d="m 0,0 c -0.782,0 -1.419,-0.636 -1.419,-1.418 0,-0.782 0.637,-1.418 1.419,-1.418 0.782,0 1.418,0.636 1.418,1.418 C 1.418,-0.636 0.782,0 0,0 m 0,-3.635 c -1.223,0 -2.217,0.995 -2.217,2.217 0,1.222 0.994,2.217 2.217,2.217 1.223,0 2.217,-0.995 2.217,-2.217 C 2.217,-2.64 1.223,-3.635 0,-3.635" /></g><g
           transform="translate(29.9014,51.7457)"
           id="g44"><path
             id="path46"
             style="fill:#009569;fill-opacity:1;fill-rule:nonzero;stroke:none"
             d="m 0,0 c -0.589,0 -1.068,-0.479 -1.068,-1.068 0,-0.589 0.479,-1.069 1.068,-1.069 0.589,0 1.069,0.48 1.069,1.069 C 1.069,-0.479 0.589,0 0,0 m 0,-2.936 c -1.03,0 -1.867,0.838 -1.867,1.868 0,1.029 0.837,1.867 1.867,1.867 1.03,0 1.868,-0.838 1.868,-1.867 0,-1.03 -0.838,-1.868 -1.868,-1.868" /></g><g
           transform="translate(28.3937,56.9266)"
           id="g48"><path
             id="path50"
             style="fill:#009569;fill-opacity:1;fill-rule:nonzero;stroke:none"
             d="m 0,0 c 0,-0.811 -0.657,-1.468 -1.468,-1.468 -0.811,0 -1.468,0.657 -1.468,1.468 0,0.811 0.657,1.468 1.468,1.468 C -0.657,1.468 0,0.811 0,0" /></g><g
           transform="translate(26.9708,23.9306)"
           id="g52"><path
             id="path54"
             style="fill:#009569;fill-opacity:1;fill-rule:nonzero;stroke:none"
             d="m 0,0 c 0,-0.836 -0.677,-1.513 -1.513,-1.513 -0.835,0 -1.513,0.677 -1.513,1.513 0,0.835 0.678,1.513 1.513,1.513 C -0.677,1.513 0,0.835 0,0" /></g><g
           transform="translate(34.3952,20.905)"
           id="g56"><path
             id="path58"
             style="fill:#009569;fill-opacity:1;fill-rule:nonzero;stroke:none"
             d="m 0,0 c 0,-0.836 -0.677,-1.513 -1.513,-1.513 -0.835,0 -1.513,0.677 -1.513,1.513 0,0.836 0.678,1.513 1.513,1.513 C -0.677,1.513 0,0.836 0,0" /></g><g
           transform="translate(28.3388,40.6563)"
           id="g60"><path
             id="path62"
             style="fill:#009569;fill-opacity:1;fill-rule:nonzero;stroke:none"
             d="m 0,0 c 0,-0.808 -0.655,-1.463 -1.463,-1.463 -0.808,0 -1.463,0.655 -1.463,1.463 0,0.808 0.655,1.463 1.463,1.463 C -0.655,1.463 0,0.808 0,0" /></g><g
           transform="translate(22.8335,44.7567)"
           id="g64"><path
             id="path66"
             style="fill:#009569;fill-opacity:1;fill-rule:nonzero;stroke:none"
             d="m 0,0 c 0,-0.808 -0.655,-1.463 -1.463,-1.463 -0.808,0 -1.463,0.655 -1.463,1.463 0,0.808 0.655,1.463 1.463,1.463 C -0.655,1.463 0,0.808 0,0" /></g><g
           transform="translate(15.0581,25.3935)"
           id="g68"><path
             id="path70"
             style="fill:#009569;fill-opacity:1;fill-rule:nonzero;stroke:none"
             d="m 0,0 c 0,-0.808 -0.655,-1.463 -1.463,-1.463 -0.808,0 -1.463,0.655 -1.463,1.463 0,0.808 0.655,1.463 1.463,1.463 C -0.655,1.463 0,0.808 0,0" /></g><g
           transform="translate(37.4426,53.535)"
           id="g72"><path
             id="path74"
             style="fill:#009569;fill-opacity:1;fill-rule:nonzero;stroke:none"
             d="m 0,0 c 0,-0.808 -0.655,-1.463 -1.463,-1.463 -0.808,0 -1.463,0.655 -1.463,1.463 0,0.808 0.655,1.463 1.463,1.463 C -0.655,1.463 0,0.808 0,0" /></g><g
           transform="translate(45.0237,58.7033)"
           id="g76"><path
             id="path78"
             style="fill:#009569;fill-opacity:1;fill-rule:nonzero;stroke:none"
             d="m 0,0 c -0.118,0.435 -0.513,0.737 -0.964,0.737 h -5.181 c -0.311,0 -0.604,-0.145 -0.793,-0.392 -0.189,-0.247 -0.252,-0.568 -0.17,-0.869 0.04,-0.15 4.035,-15.333 -0.023,-40.875 -0.046,-0.289 0.037,-0.583 0.226,-0.805 0.191,-0.223 0.468,-0.35 0.76,-0.35 h 5.181 c 0.491,0 0.909,0.356 0.987,0.841 C 4.146,-15.75 0.172,-0.631 0,0" /></g><g
           transform="translate(15.7572,36.4222)"
           id="g80"><path
             id="path82"
             style="fill:#009569;fill-opacity:1;fill-rule:nonzero;stroke:none"
             d="m 0,0 c 0,-1.194 -0.968,-2.162 -2.162,-2.162 -1.194,0 -2.162,0.968 -2.162,2.162 0,1.194 0.968,2.162 2.162,2.162 C -0.968,2.162 0,1.194 0,0" /></g><g
           transform="translate(51.3158,44.0629)"
           id="g84"><path
             id="path86"
             style="fill:#009569;fill-opacity:1;fill-rule:nonzero;stroke:none"
             d="m 0,0 c -1.514,0 -2.747,1.232 -2.747,2.747 0,1.514 1.233,2.746 2.747,2.746 1.514,0 2.747,-1.232 2.747,-2.746 C 2.747,1.232 1.514,0 0,0" /></g><g
           transform="translate(52.235,27.5868)"
           id="g88"><path
             id="path90"
             style="fill:#009569;fill-opacity:1;fill-rule:nonzero;stroke:none"
             d="m 0,0 c -1.514,0 -2.747,1.232 -2.747,2.747 0,1.514 1.233,2.746 2.747,2.746 1.514,0 2.747,-1.232 2.747,-2.746 C 2.747,1.232 1.514,0 0,0" /></g><g
           transform="translate(56.5982,37.9901)"
           id="g92"><path
             id="path94"
             style="fill:#009569;fill-opacity:1;fill-rule:nonzero;stroke:none"
             d="m 0,0 c -1.03,0 -1.867,0.838 -1.867,1.867 0,1.03 0.837,1.868 1.867,1.868 1.03,0 1.868,-0.838 1.868,-1.868 C 1.868,0.838 1.03,0 0,0" /></g><g
           transform="translate(59.5343,32.2992)"
           id="g96"><path
             id="path98"
             style="fill:#009569;fill-opacity:1;fill-rule:nonzero;stroke:none"
             d="m 0,0 c -1.03,0 -1.867,0.838 -1.867,1.867 0,1.03 0.837,1.868 1.867,1.868 1.03,0 1.867,-0.838 1.867,-1.868 C 1.867,0.838 1.03,0 0,0" /></g><g
           transform="translate(62.6358,44.4398)"
           id="g100"><path
             id="path102"
             style="fill:#009569;fill-opacity:1;fill-rule:nonzero;stroke:none"
             d="m 0,0 c -1.03,0 -1.867,0.838 -1.867,1.868 0,1.029 0.837,1.867 1.867,1.867 1.03,0 1.867,-0.838 1.867,-1.867 C 1.867,0.838 1.03,0 0,0" /></g><g
           transform="translate(64.8354,26.7932)"
           id="g104"><path
             id="path106"
             style="fill:#009569;fill-opacity:1;fill-rule:nonzero;stroke:none"
             d="m 0,0 c -1.03,0 -1.867,0.838 -1.867,1.867 0,1.03 0.837,1.868 1.867,1.868 1.03,0 1.868,-0.838 1.868,-1.868 C 1.868,0.838 1.03,0 0,0" /></g><g
           transform="translate(64.1036,36.522)"
           id="g108"><path
             id="path110"
             style="fill:#009569;fill-opacity:1;fill-rule:nonzero;stroke:none"
             d="m 0,0 c -1.03,0 -1.867,0.838 -1.867,1.868 0,1.029 0.837,1.867 1.867,1.867 1.03,0 1.867,-0.838 1.867,-1.867 C 1.867,0.838 1.03,0 0,0" /></g><g
           transform="translate(35.4943,34.993)"
           id="g112"><path
             id="path114"
             style="fill:#009569;fill-opacity:1;fill-rule:nonzero;stroke:none"
             d="m 0,0 c -0.39,0.39 -1.022,0.39 -1.412,0 -0.39,-0.39 -0.39,-1.022 0,-1.412 l 2.248,-2.249 h -9.455 c -0.551,0 -0.999,-0.447 -0.999,-0.999 0,-0.551 0.448,-0.998 0.999,-0.998 h 9.455 l -2.248,-2.249 c -0.39,-0.39 -0.39,-1.022 0,-1.412 0.195,-0.196 0.45,-0.293 0.706,-0.293 0.256,0 0.511,0.097 0.706,0.293 l 3.954,3.953 c 0.39,0.39 0.39,1.022 0,1.412 z" /></g><g
           transform="translate(26.8755,44.2575)"
           id="g116"><path
             id="path118"
             style="fill:#009569;fill-opacity:1;fill-rule:nonzero;stroke:none"
             d="m 0,0 h 9.456 l -2.25,-2.249 c -0.39,-0.389 -0.39,-1.022 0,-1.412 0.196,-0.195 0.451,-0.293 0.707,-0.293 0.256,0 0.511,0.098 0.706,0.293 l 3.953,3.953 c 0.188,0.187 0.293,0.441 0.293,0.706 0,0.265 -0.105,0.519 -0.293,0.706 L 8.619,5.658 c -0.39,0.39 -1.022,0.39 -1.413,0 -0.39,-0.39 -0.39,-1.022 0,-1.412 L 9.455,1.997 H 0 C -0.552,1.997 -0.999,1.55 -0.999,0.999 -0.999,0.447 -0.552,0 0,0" /></g></g></g></g></svg>