<?xml version="1.0" encoding="UTF-8" standalone="no"?>
<svg
   xmlns:dc="http://purl.org/dc/elements/1.1/"
   xmlns:cc="http://creativecommons.org/ns#"
   xmlns:rdf="http://www.w3.org/1999/02/22-rdf-syntax-ns#"
   xmlns:svg="http://www.w3.org/2000/svg"
   xmlns="http://www.w3.org/2000/svg"
   viewBox="0 0 94.488136 94.487198"
   height="94.487198"
   width="94.488136"
   xml:space="preserve"
   id="svg2"
   version="1.1"><metadata
     id="metadata8"><rdf:RDF><cc:Work
         rdf:about=""><dc:format>image/svg+xml</dc:format><dc:type
           rdf:resource="http://purl.org/dc/dcmitype/StillImage" /></cc:Work></rdf:RDF></metadata><defs
     id="defs6"><clipPath
       id="clipPath18"
       clipPathUnits="userSpaceOnUse"><path
         id="path16"
         d="M 0,70.865 H 70.866 V 0 H 0 Z" /></clipPath></defs><g
     transform="matrix(1.3333333,0,0,-1.3333333,0,94.4872)"
     id="g10"><g
       id="g12"><g
         clip-path="url(#clipPath18)"
         id="g14"><g
           transform="translate(35.4338,68.9928)"
           id="g20"><path
             id="path22"
             style="fill:#525252;fill-opacity:1;fill-rule:nonzero;stroke:none"
             d="m 0,0 c -18.505,0 -33.561,-15.055 -33.561,-33.56 0,-18.505 15.056,-33.56 33.561,-33.56 18.505,0 33.56,15.055 33.56,33.56 C 33.56,-15.055 18.505,0 0,0 m 0,-68.993 c -19.538,0 -35.434,15.895 -35.434,35.433 0,19.538 15.896,35.433 35.434,35.433 19.538,0 35.432,-15.895 35.432,-35.433 0,-19.538 -15.894,-35.433 -35.432,-35.433" /></g><g
           transform="translate(35.4338,9.1539)"
           id="g24"><path
             id="path26"
             style="fill:#525252;fill-opacity:1;fill-rule:nonzero;stroke:none"
             d="m 0,0 h -0.02 c -2.561,0.011 -4.634,2.103 -4.623,4.662 0.002,0.206 0.004,0.75 2.915,7.144 0.551,1.21 1.391,1.341 1.727,1.341 H 0 c 0.336,0 1.176,-0.131 1.726,-1.343 C 4.644,5.375 4.642,4.848 4.641,4.622 4.636,3.382 4.148,2.218 3.268,1.345 2.392,0.477 1.232,0 0,0" /></g><g
           transform="translate(35.4331,21.6007)"
           id="g28"><path
             id="path30"
             style="fill:#525252;fill-opacity:1;fill-rule:nonzero;stroke:none"
             d="m 0,0 c -0.517,0 -0.936,0.102 -0.936,0.228 v 10.361 c 0,0.126 0.419,0.228 0.936,0.228 0.517,0 0.936,-0.102 0.936,-0.228 V 0.228 C 0.936,0.102 0.517,0 0,0" /></g><g
           transform="translate(35.4331,56.822)"
           id="g32"><path
             id="path34"
             style="fill:#525252;fill-opacity:1;fill-rule:nonzero;stroke:none"
             d="m 0,0 c -0.517,0 -0.936,0.122 -0.936,0.272 v 12.38 c 0,0.151 0.419,0.272 0.936,0.272 0.517,0 0.936,-0.121 0.936,-0.272 V 0.272 C 0.936,0.122 0.517,0 0,0" /></g><g
           transform="translate(24.9448,45.8157)"
           id="g36"><path
             id="path38"
             style="fill:#525252;fill-opacity:1;fill-rule:nonzero;stroke:none"
             d="M 0,0 C 0,0.609 0.239,1.183 0.673,1.618 1.107,2.051 1.681,2.291 2.289,2.291 H 2.29 3.431 V 2.038 C 3.43,1.022 3.828,0.064 4.551,-0.659 c 0.723,-0.722 1.681,-1.12 2.697,-1.12 h 0.076 c 1.017,0 1.974,0.398 2.697,1.121 0.723,0.722 1.121,1.68 1.12,2.697 V 2.184 C 12.067,1.889 12.74,1.022 12.74,0 l -10e-4,-0.07 c 0,-1.269 -1.027,-2.296 -2.29,-2.297 L 2.291,-2.366 H 2.29 c -0.609,0 -1.182,0.239 -1.617,0.673 C 0.239,-1.259 0,-0.684 0,-0.076 Z m 2.246,-3.891 c 0.015,0 0.029,-0.002 0.043,-0.002 h 0.002 l 8.158,-0.001 c 0.564,0 1.098,0.127 1.58,0.347 0.449,-0.429 0.711,-1.018 0.711,-1.648 l -10e-4,-0.07 c 0,-1.269 -1.027,-2.297 -2.29,-2.297 H 4.123 4.122 c -0.608,0 -1.182,0.24 -1.616,0.673 -0.434,0.435 -0.674,1.009 -0.674,1.618 v 0.076 c 0,0.469 0.148,0.923 0.414,1.304 m 1.418,-6.878 c 0,0.646 0.269,1.246 0.741,1.68 h 6.044 c 0.444,0 0.869,0.08 1.266,0.221 0.632,-0.422 1.025,-1.127 1.025,-1.901 l -10e-4,-0.07 c 0,-1.269 -1.027,-2.297 -2.29,-2.297 H 5.955 c -1.263,0 -2.29,1.028 -2.291,2.291 z M 28.131,6.655 23.805,8.629 c -0.14,0.057 -0.644,0.333 -1.178,0.624 -2.467,1.347 -7.059,3.854 -9.466,3.854 -2.4,0 -5.764,-2.639 -7.317,-3.978 H 4.123 4.122 C 3.106,9.129 2.149,8.731 1.426,8.008 0.703,7.286 0.305,6.328 0.305,5.311 V 5.235 C 0.305,4.619 0.454,4.022 0.735,3.482 0.316,3.294 -0.071,3.032 -0.406,2.697 -1.129,1.975 -1.527,1.017 -1.527,0 v -0.076 c 0,-1.017 0.398,-1.974 1.121,-2.697 C -0.083,-3.096 0.29,-3.351 0.691,-3.537 0.443,-4.05 0.305,-4.615 0.305,-5.195 v -0.076 c 0,-1.017 0.399,-1.974 1.121,-2.697 0.368,-0.368 0.798,-0.651 1.265,-0.841 -0.353,-0.588 -0.553,-1.264 -0.553,-1.96 v -0.076 c 0,-2.105 1.713,-3.818 3.817,-3.818 h 4.422 c 0.024,-0.002 0.047,-0.007 0.072,-0.007 h 5.059 c 1.731,0 4.512,0.31 6.201,0.691 l 6.81,1.534 -0.675,1.443 -6.471,-1.488 c -1.597,-0.36 -4.228,-0.653 -5.865,-0.653 H 13.49 c 0.485,0.64 0.776,1.435 0.776,2.298 l 10e-4,0.07 c 0,1.063 -0.437,2.05 -1.174,2.757 0.722,0.695 1.173,1.668 1.173,2.747 l 10e-4,0.07 c 0,0.965 -0.36,1.873 -0.992,2.568 0.614,0.678 0.991,1.573 0.991,2.557 l 10e-4,0.071 c -10e-4,1.729 -1.151,3.189 -2.723,3.661 l 0.795,0.403 c 0.293,-0.671 0.888,-1.385 1.984,-1.732 0.403,-0.128 0.832,0.095 0.959,0.497 0.127,0.402 -0.095,0.831 -0.497,0.958 -1.173,0.372 -1.166,1.369 -1.166,1.38 0.006,0.267 -0.13,0.519 -0.357,0.661 -0.227,0.143 -0.512,0.156 -0.751,0.035 L 10.033,4.602 C 9.776,4.473 9.615,4.209 9.615,3.922 L 9.614,2.038 C 9.615,1.43 9.376,0.856 8.941,0.421 8.507,-0.013 7.933,-0.252 7.324,-0.252 H 7.248 C 6.64,-0.252 6.065,-0.013 5.631,0.421 5.197,0.856 4.957,1.43 4.957,2.038 v 3.273 c 0,0.766 0.386,1.48 1.032,1.909 0.036,0.023 0.07,0.05 0.101,0.079 1.268,1.191 5.011,4.281 7.071,4.281 2.017,0 6.724,-2.569 8.734,-3.667 0.753,-0.411 1.124,-0.612 1.334,-0.698 L 27.775,5.139 M 4.2,7.602 C 3.707,6.949 3.43,6.15 3.43,5.311 V 3.818 H 2.314 C 2.299,3.845 2.285,3.872 2.266,3.898 1.983,4.291 1.832,4.753 1.832,5.236 v 0.075 c 0,0.609 0.239,1.183 0.673,1.617 0.435,0.434 1.009,0.674 1.617,0.674 h 0.001 z" /></g><g
           transform="translate(52.435,51.7127)"
           id="g40"><path
             id="path42"
             style="fill:#525252;fill-opacity:1;fill-rule:nonzero;stroke:none"
             d="m 0,0 c 0,0.419 0.128,0.758 0.285,0.758 h 12.973 c 0.158,0 0.286,-0.339 0.286,-0.758 0,-0.419 -0.128,-0.758 -0.286,-0.758 H 0.285 C 0.159,-0.723 0,-0.419 0,0" /></g><g
           transform="translate(52.435,34.0559)"
           id="g44"><path
             id="path46"
             style="fill:#525252;fill-opacity:1;fill-rule:nonzero;stroke:none"
             d="m 0,0 c 0,0.419 0.158,0.758 0.354,0.758 h 16.084 c 0.195,0 0.354,-0.339 0.354,-0.758 0,-0.419 -0.159,-0.758 -0.354,-0.758 L 0.382,-0.678 C 0.226,-0.643 0,-0.419 0,0" /></g></g></g></g></svg>