<?xml version="1.0" encoding="UTF-8" standalone="no"?>
<svg
   xmlns:dc="http://purl.org/dc/elements/1.1/"
   xmlns:cc="http://creativecommons.org/ns#"
   xmlns:rdf="http://www.w3.org/1999/02/22-rdf-syntax-ns#"
   xmlns:svg="http://www.w3.org/2000/svg"
   xmlns="http://www.w3.org/2000/svg"
   viewBox="0 0 100.788 100.78587"
   height="100.78587"
   width="100.788"
   xml:space="preserve"
   id="svg2"
   version="1.1"><metadata
     id="metadata8"><rdf:RDF><cc:Work
         rdf:about=""><dc:format>image/svg+xml</dc:format><dc:type
           rdf:resource="http://purl.org/dc/dcmitype/StillImage" /></cc:Work></rdf:RDF></metadata><defs
     id="defs6"><clipPath
       id="clipPath18"
       clipPathUnits="userSpaceOnUse"><path
         id="path16"
         d="M 0,0 H 75.59 V 75.589 H 0 Z" /></clipPath><clipPath
       id="clipPath38"
       clipPathUnits="userSpaceOnUse"><path
         id="path36"
         d="M 0,0 H 75.591 V 75.589 H 0 Z" /></clipPath></defs><g
     transform="matrix(1.3333333,0,0,-1.3333333,0,100.78587)"
     id="g10"><g
       id="g12"><g
         clip-path="url(#clipPath18)"
         id="g14"><g
           transform="translate(37.796,73.592)"
           id="g20"><path
             id="path22"
             style="fill:#009569;fill-opacity:1;fill-rule:nonzero;stroke:none"
             d="m 0,0 c -19.739,0 -35.799,-16.059 -35.799,-35.797 0,-19.739 16.06,-35.798 35.799,-35.798 19.738,0 35.797,16.059 35.797,35.798 C 35.797,-16.059 19.738,0 0,0 m 0,-73.592 c -20.841,0 -37.796,16.955 -37.796,37.795 0,20.84 16.955,37.794 37.796,37.794 20.84,0 37.794,-16.954 37.794,-37.794 0,-20.84 -16.954,-37.795 -37.794,-37.795" /></g></g></g><g
       transform="translate(41.5073,35.5052)"
       id="g24"><path
         id="path26"
         style="fill:#009569;fill-opacity:1;fill-rule:nonzero;stroke:none"
         d="M 0,0 -1.027,-2.261 H 1.055 L 0.014,0 Z" /></g><g
       transform="translate(30.8602,35.5052)"
       id="g28"><path
         id="path30"
         style="fill:#009569;fill-opacity:1;fill-rule:nonzero;stroke:none"
         d="M 0,0 -1.027,-2.261 H 1.055 L 0.014,0 Z" /></g><g
       id="g32"><g
         clip-path="url(#clipPath38)"
         id="g34"><g
           transform="translate(45.8777,29.9561)"
           id="g40"><path
             id="path42"
             style="fill:#009569;fill-opacity:1;fill-rule:nonzero;stroke:none"
             d="M 0,0 H -1.521 C -1.767,0 -1.877,0.082 -2,0.343 L -2.493,1.425 H -6.22 L -6.713,0.329 C -6.782,0.165 -6.932,0 -7.206,0 h -1.507 c -0.206,0 -0.315,0.178 -0.233,0.356 l 4.288,9.221 c 0.041,0.082 0.137,0.15 0.233,0.15 h 0.137 c 0.096,0 0.192,-0.068 0.233,-0.15 L 0.233,0.356 C 0.315,0.178 0.206,0 0,0 m -10.647,0 h -1.521 c -0.246,0 -0.356,0.082 -0.479,0.343 l -0.493,1.082 h -3.727 L -17.36,0.329 C -17.429,0.165 -17.579,0 -17.853,0 h -1.508 c -0.205,0 -0.314,0.178 -0.233,0.356 l 4.289,9.221 c 0.041,0.082 0.137,0.15 0.233,0.15 h 0.137 c 0.096,0 0.192,-0.068 0.233,-0.15 l 4.288,-9.221 C -10.332,0.178 -10.442,0 -10.647,0 m 26.253,4.21 -9.59,9.737 V 13.934 H -27.073 V -5.513 H 6.016 v -0.013 z" /></g><g
           transform="translate(27.0381,53.9366)"
           id="g44"><path
             id="path46"
             style="fill:#009569;fill-opacity:1;fill-rule:nonzero;stroke:none"
             d="M 0,0 C 0.853,0 1.47,-0.27 2.045,-0.786 2.121,-0.853 2.121,-0.955 2.053,-1.023 L 1.538,-1.555 c -0.059,-0.067 -0.144,-0.067 -0.212,0 -0.354,0.313 -0.827,0.499 -1.301,0.499 -1.081,0 -1.884,-0.905 -1.884,-1.969 0,-1.056 0.811,-1.952 1.893,-1.952 0.507,0 0.938,0.194 1.292,0.482 0.068,0.059 0.161,0.05 0.212,0 L 2.062,-5.036 C 2.129,-5.095 2.112,-5.205 2.053,-5.264 1.479,-5.822 0.752,-6.084 0,-6.084 c -1.69,0 -3.05,1.343 -3.05,3.034 C -3.05,-1.36 -1.69,0 0,0" /></g><g
           transform="translate(30.1963,53.6913)"
           id="g48"><path
             id="path50"
             style="fill:#009569;fill-opacity:1;fill-rule:nonzero;stroke:none"
             d="m 0,0 c 0,0.085 0.068,0.161 0.16,0.161 h 0.778 c 0.084,0 0.16,-0.076 0.16,-0.161 v -4.74 h 2.155 c 0.093,0 0.16,-0.076 0.16,-0.161 v -0.693 c 0,-0.084 -0.067,-0.16 -0.16,-0.16 H 0.16 C 0.068,-5.754 0,-5.678 0,-5.594 Z" /></g><g
           transform="translate(37.6132,49.9565)"
           id="g52"><path
             id="path54"
             style="fill:#009569;fill-opacity:1;fill-rule:nonzero;stroke:none"
             d="M 0,0 -0.845,1.859 H -0.87 L -1.699,0 Z m -3.65,-1.8 2.627,5.687 c 0.026,0.051 0.068,0.093 0.144,0.093 h 0.085 c 0.084,0 0.118,-0.042 0.143,-0.093 L 1.952,-1.8 C 2.002,-1.91 1.935,-2.02 1.808,-2.02 H 1.073 c -0.127,0 -0.186,0.051 -0.245,0.17 L 0.414,-0.938 H -2.113 L -2.527,-1.85 c -0.034,-0.085 -0.109,-0.17 -0.244,-0.17 h -0.736 c -0.126,0 -0.194,0.11 -0.143,0.22" /></g><g
           transform="translate(39.9852,48.7652)"
           id="g56"><path
             id="path58"
             style="fill:#009569;fill-opacity:1;fill-rule:nonzero;stroke:none"
             d="M 0,0 0.304,0.524 C 0.372,0.642 0.515,0.642 0.591,0.583 0.634,0.558 1.318,0.059 1.867,0.059 c 0.44,0 0.769,0.287 0.769,0.651 0,0.431 -0.363,0.726 -1.073,1.014 -0.794,0.321 -1.589,0.828 -1.589,1.825 0,0.752 0.558,1.622 1.902,1.622 0.861,0 1.521,-0.439 1.689,-0.566 C 3.65,4.555 3.675,4.411 3.617,4.326 L 3.295,3.845 C 3.228,3.743 3.101,3.676 2.999,3.743 2.932,3.786 2.29,4.208 1.825,4.208 1.344,4.208 1.082,3.887 1.082,3.617 1.082,3.219 1.394,2.949 2.079,2.67 2.898,2.341 3.844,1.851 3.844,0.76 c 0,-0.87 -0.752,-1.673 -1.943,-1.673 -1.065,0 -1.69,0.499 -1.859,0.659 C -0.034,-0.178 -0.076,-0.135 0,0" /></g><g
           transform="translate(44.5632,48.7652)"
           id="g60"><path
             id="path62"
             style="fill:#009569;fill-opacity:1;fill-rule:nonzero;stroke:none"
             d="M 0,0 0.304,0.524 C 0.372,0.642 0.515,0.642 0.591,0.583 0.634,0.558 1.318,0.059 1.867,0.059 c 0.44,0 0.769,0.287 0.769,0.651 0,0.431 -0.363,0.726 -1.073,1.014 -0.794,0.321 -1.589,0.828 -1.589,1.825 0,0.752 0.558,1.622 1.901,1.622 0.862,0 1.522,-0.439 1.69,-0.566 C 3.65,4.555 3.675,4.411 3.616,4.326 L 3.295,3.845 C 3.228,3.743 3.101,3.676 2.999,3.743 2.932,3.786 2.289,4.208 1.825,4.208 1.344,4.208 1.082,3.887 1.082,3.617 1.082,3.219 1.394,2.949 2.079,2.67 2.898,2.341 3.844,1.851 3.844,0.76 c 0,-0.87 -0.752,-1.673 -1.943,-1.673 -1.065,0 -1.69,0.499 -1.859,0.659 C -0.034,-0.178 -0.076,-0.135 0,0" /></g></g></g></g></svg>