<?xml version="1.0" encoding="UTF-8" standalone="no"?>
<svg
   xmlns:dc="http://purl.org/dc/elements/1.1/"
   xmlns:cc="http://creativecommons.org/ns#"
   xmlns:rdf="http://www.w3.org/1999/02/22-rdf-syntax-ns#"
   xmlns:svg="http://www.w3.org/2000/svg"
   xmlns="http://www.w3.org/2000/svg"
   viewBox="0 0 93.312531 93.312134"
   height="93.312134"
   width="93.312531"
   xml:space="preserve"
   id="svg2"
   version="1.1"><metadata
     id="metadata8"><rdf:RDF><cc:Work
         rdf:about=""><dc:format>image/svg+xml</dc:format><dc:type
           rdf:resource="http://purl.org/dc/dcmitype/StillImage" /></cc:Work></rdf:RDF></metadata><defs
     id="defs6"><clipPath
       id="clipPath18"
       clipPathUnits="userSpaceOnUse"><path
         id="path16"
         d="M 0,69.984 H 69.984 V 0 H 0 Z" /></clipPath></defs><g
     transform="matrix(1.3333333,0,0,-1.3333333,0,93.312133)"
     id="g10"><g
       id="g12"><g
         clip-path="url(#clipPath18)"
         id="g14"><g
           transform="translate(34.9924,68.1347)"
           id="g20"><path
             id="path22"
             style="fill:#525252;fill-opacity:1;fill-rule:nonzero;stroke:none"
             d="m 0,0 c -18.275,0 -33.143,-14.868 -33.143,-33.143 0,-18.275 14.868,-33.142 33.143,-33.142 18.275,0 33.143,14.867 33.143,33.142 C 33.143,-14.868 18.275,0 0,0 m 0,-68.135 c -19.295,0 -34.992,15.698 -34.992,34.992 0,19.295 15.697,34.992 34.992,34.992 19.295,0 34.992,-15.697 34.992,-34.992 0,-19.294 -15.697,-34.992 -34.992,-34.992" /></g><g
           transform="translate(45.8901,22.4636)"
           id="g24"><path
             id="path26"
             style="fill:#525252;fill-opacity:1;fill-rule:nonzero;stroke:none"
             d="M 0,0 C -0.077,-0.015 -0.153,0.036 -0.167,0.113 -0.182,0.19 -0.131,0.265 -0.053,0.28 0.024,0.295 0.099,0.244 0.114,0.167 0.129,0.09 0.077,0.015 0,0 M -0.057,0.301 C -0.147,0.284 -0.205,0.198 -0.189,0.109 -0.172,0.02 -0.085,-0.038 0.004,-0.021 0.093,-0.004 0.152,0.082 0.135,0.171 0.118,0.26 0.032,0.318 -0.057,0.301" /></g><g
           transform="translate(39.7971,19.9624)"
           id="g28"><path
             id="path30"
             style="fill:#525252;fill-opacity:1;fill-rule:nonzero;stroke:none"
             d="m 0,0 c -0.254,-0.049 -0.478,0.051 -0.536,0.079 l 0.313,0.569 C -0.244,0.329 0.003,0.201 0.007,0.2 0.085,0.165 0.172,0.156 0.267,0.174 0.313,0.183 0.355,0.197 0.391,0.212 0.277,0.099 0.146,0.028 0,0 M -0.74,0.609 C -0.817,0.446 -0.772,0.301 -0.725,0.212 -1.069,0.537 -0.919,1.026 -0.917,1.031 -0.9,1.076 -0.88,1.116 -0.86,1.155 L -0.303,0.841 C -0.347,0.842 -0.39,0.839 -0.43,0.832 -0.66,0.788 -0.737,0.616 -0.74,0.609 m 0.493,1.408 C -0.338,2.019 -0.427,2.012 -0.514,1.996 -0.882,1.926 -1.091,1.703 -1.093,1.7 L -1.097,1.696 -0.97,1.558 -0.965,1.563 c 0.169,0.159 0.379,0.225 0.524,0.253 0.1,0.019 0.17,0.02 0.17,0.02 C 0.317,1.819 0.53,1.342 0.532,1.337 0.705,0.958 0.668,0.683 0.607,0.519 0.588,0.47 0.566,0.429 0.545,0.393 L -0.039,0.72 C 0.003,0.717 0.045,0.719 0.085,0.727 0.293,0.766 0.403,0.933 0.408,0.941 0.553,1.269 0.242,1.489 0.239,1.491 L 0.228,1.499 -0.106,0.901 c 0.014,0.333 -0.212,0.434 -0.213,0.434 -0.073,0.048 -0.164,0.061 -0.272,0.041 -0.053,-0.01 -0.102,-0.027 -0.142,-0.044 0.104,0.11 0.234,0.181 0.392,0.211 C -0.065,1.596 0.196,1.501 0.199,1.5 L 0.206,1.51 C 0.133,1.586 -0.077,1.753 -0.46,1.68 -0.506,1.671 -0.533,1.662 -0.535,1.662 -1.213,1.419 -1.147,0.738 -1.146,0.732 c 0.022,-0.374 0.2,-0.591 0.344,-0.708 0.157,-0.126 0.311,-0.165 0.312,-0.165 0.179,-0.056 0.353,-0.068 0.518,-0.037 0.378,0.072 0.586,0.353 0.588,0.355 0.46,0.527 0.095,1.247 0.091,1.254 -0.306,0.587 -0.948,0.586 -0.954,0.586" /></g><g
           transform="translate(41.727,21.7854)"
           id="g32"><path
             id="path34"
             style="fill:#525252;fill-opacity:1;fill-rule:nonzero;stroke:none"
             d="m 0,0 -0.012,0.005 -0.002,-0.004 -0.287,-0.055 -0.006,0.002 -0.16,-0.408 -0.295,0.322 -0.002,0.002 -0.314,-0.06 0.003,-0.012 h 0.004 l 0.491,-0.54 -0.284,-0.726 0.317,0.061 0.171,0.441 0.311,-0.343 0.001,-0.006 0.329,0.063 -0.529,0.576 z" /></g><g
           transform="translate(42.5909,21.0138)"
           id="g36"><path
             id="path38"
             style="fill:#525252;fill-opacity:1;fill-rule:nonzero;stroke:none"
             d="m 0,0 c -0.009,-0.078 -0.031,-0.125 -0.031,-0.125 -0.059,-0.103 -0.142,-0.119 -0.208,-0.101 -0.058,0.016 -0.113,0.057 -0.113,0.057 -0.136,0.182 -0.074,0.392 -0.074,0.392 l 0.015,0.043 C -0.262,0.47 -0.085,0.284 -0.085,0.284 -0.007,0.199 0.008,0.083 0,0 m -0.101,0.568 c 0,0 -0.299,0.052 -0.398,-0.21 l -0.027,0.141 -0.234,-0.044 0.253,-1.288 0.234,0.045 -0.09,0.471 c 0,0 0.128,-0.137 0.359,-0.073 0,0 0.317,0.105 0.24,0.547 0,0 -0.061,0.362 -0.337,0.411" /></g><g
           transform="translate(43.1314,21.3259)"
           id="g40"><path
             id="path42"
             style="fill:#525252;fill-opacity:1;fill-rule:nonzero;stroke:none"
             d="m 0,0 -0.005,0.026 c 0,0 -0.012,0.062 0.023,0.124 0,0 0.06,0.1 0.194,0.091 0,0 0.149,0.004 0.173,-0.167 z m 0.267,0.45 c -0.318,0.021 -0.456,-0.201 -0.456,-0.201 -0.132,-0.211 -0.01,-0.52 -0.01,-0.52 0.074,-0.221 0.293,-0.264 0.293,-0.264 0.28,-0.07 0.479,0.119 0.479,0.119 0.106,0.1 0.101,0.252 0.101,0.252 L 0.417,-0.213 C 0.418,-0.302 0.338,-0.332 0.338,-0.332 0.239,-0.388 0.143,-0.339 0.143,-0.339 0.039,-0.285 0.022,-0.157 0.022,-0.157 L 0.657,-0.033 0.636,0.072 C 0.561,0.427 0.267,0.45 0.267,0.45" /></g><g
           transform="translate(43.9567,20.8975)"
           id="g44"><path
             id="path46"
             style="fill:#525252;fill-opacity:1;fill-rule:nonzero;stroke:none"
             d="M 0,0 0.275,0.052 0.03,1.338 -0.245,1.286 Z" /></g><g
           transform="translate(45.0406,22.1873)"
           id="g48"><path
             id="path50"
             style="fill:#525252;fill-opacity:1;fill-rule:nonzero;stroke:none"
             d="M 0,0 0.275,0.052 0.226,0.31 -0.049,0.257 Z" /></g><g
           transform="translate(45.2396,21.1448)"
           id="g52"><path
             id="path54"
             style="fill:#525252;fill-opacity:1;fill-rule:nonzero;stroke:none"
             d="M 0,0 0.275,0.052 0.092,1.011 -0.183,0.958 Z" /></g><g
           transform="translate(45.9839,22.3033)"
           id="g56"><path
             id="path58"
             style="fill:#525252;fill-opacity:1;fill-rule:nonzero;stroke:none"
             d="m 0,0 c -0.055,-0.01 -0.181,-0.05 -0.244,-0.196 l -0.022,0.119 -0.26,-0.05 0.182,-0.955 0.268,0.051 -0.104,0.544 c -0.001,0.008 -0.013,0.176 0.175,0.212 0.025,0.004 0.052,0.007 0.081,0.007 L 0.091,-0.269 0.039,0.004 H 0.028 C 0.028,0.004 0.017,0.003 0,0" /></g><g
           transform="translate(44.8044,21.4254)"
           id="g60"><path
             id="path62"
             style="fill:#525252;fill-opacity:1;fill-rule:nonzero;stroke:none"
             d="m 0,0 c 0,0 0.003,-0.138 -0.102,-0.205 0,0 -0.11,-0.078 -0.195,-0.005 0,0 -0.12,0.138 0.09,0.23 0,0 0.13,0.057 0.171,0.085 L -0.03,0.116 C -0.03,0.116 -0.008,0.08 0,0 M 0.268,-0.174 0.157,0.409 C 0.114,0.592 -0.106,0.594 -0.106,0.594 -0.416,0.622 -0.553,0.437 -0.553,0.437 -0.64,0.316 -0.607,0.184 -0.607,0.184 l 0.227,0.043 c 0.004,0.142 0.134,0.16 0.134,0.16 0.173,0.038 0.186,-0.074 0.186,-0.074 0.017,-0.088 -0.149,-0.122 -0.149,-0.122 -0.346,-0.076 -0.37,-0.279 -0.37,-0.279 -0.037,-0.295 0.221,-0.337 0.221,-0.337 0.268,-0.048 0.41,0.195 0.41,0.195 l 0.02,-0.106 0.295,0.057 c -0.073,0.011 -0.099,0.105 -0.099,0.105" /></g><g
           transform="translate(45.8824,22.6273)"
           id="g64"><path
             id="path66"
             style="fill:#525252;fill-opacity:1;fill-rule:nonzero;stroke:none"
             d="m 0,0 c 0,-0.002 -0.007,-0.006 -0.014,-0.008 l -0.038,-0.007 -0.009,0.048 0.038,0.007 c 0.007,0.002 0.015,0.003 0.015,0.001 C 0.001,0.037 0.01,0.032 0.011,0.022 0.013,0.012 0.007,0.004 0,0 M 0.048,0.034 C 0.047,0.041 0.038,0.045 0.038,0.049 0.036,0.056 0.028,0.06 0.027,0.065 0.018,0.068 0.018,0.07 0.009,0.074 0.001,0.075 -0.006,0.073 -0.021,0.07 l -0.083,-0.016 0.032,-0.172 0.038,0.007 -0.013,0.067 0.038,0.008 c 0.008,10e-4 0.015,0.003 0.016,-0.002 0.008,-0.001 0.01,-0.011 0.012,-0.02 l 0.003,-0.017 c 0.001,-0.005 0.002,-0.01 0.003,-0.014 0,-0.003 0.008,-0.004 0.009,-0.009 L 0.072,-0.09 0.071,-0.086 C 0.063,-0.085 0.063,-0.082 0.062,-0.077 0.061,-0.075 0.06,-0.07 0.059,-0.061 l -0.003,0.012 c -0.002,0.012 -0.003,0.019 -0.012,0.025 -0.001,0.005 -0.01,0.008 -0.018,0.012 0.007,0.003 0.014,0.01 0.019,0.021 -0.001,0.007 0.005,0.015 0.003,0.025" /></g><g
           transform="translate(55.6231,55.2327)"
           id="g68"><path
             id="path70"
             style="fill:#525252;fill-opacity:1;fill-rule:nonzero;stroke:none"
             d="m 0,0 c -5.017,-5.592 -9.716,-11.385 -14.099,-17.368 -4.389,-5.983 -8.418,-12.119 -12.098,-18.414 -0.27,-0.464 -0.613,-1.114 -1.014,-1.943 -1.262,-2.519 -3.052,-3.776 -5.376,-3.776 -0.987,0 -1.8,0.143 -2.439,0.433 -0.639,0.291 -1.231,0.798 -1.775,1.511 -0.443,0.623 -0.86,1.431 -1.246,2.429 -0.385,0.993 -0.845,2.461 -1.362,4.399 -0.043,0.116 -0.08,0.258 -0.117,0.433 -0.602,2.149 -0.903,3.495 -0.903,4.039 0,1.104 0.645,2.113 1.933,3.037 1.289,0.919 2.561,1.378 3.818,1.378 0.407,0 0.734,-0.122 0.988,-0.364 0.253,-0.243 0.543,-0.761 0.871,-1.553 0.195,-0.486 0.433,-1.146 0.729,-1.975 0.654,-1.859 1.209,-2.788 1.652,-2.788 0.386,0 1.917,2.117 4.589,6.358 2.556,4.05 4.753,7.446 6.591,10.197 2.576,3.849 4.536,6.637 5.882,8.348 1.347,1.717 2.561,3.016 3.644,3.908 0.95,0.771 2.17,1.384 3.665,1.827 1.489,0.449 3.374,0.745 5.66,0.903 z" /></g><g
           transform="translate(30.2059,20.8536)"
           id="g72"><path
             id="path74"
             style="fill:#525252;fill-opacity:1;fill-rule:nonzero;stroke:none"
             d="m 0,0 c 0.244,3.453 0.51,7.771 0.59,11.776 -0.341,-0.538 -0.688,-1.085 -1.043,-1.648 -0.136,-4.38 -0.451,-8.909 -0.693,-12.07 0.102,0.189 0.2,0.365 0.287,0.515 C -0.58,-0.948 -0.284,-0.477 0,0" /></g><g
           transform="translate(28.3354,17.7524)"
           id="g76"><path
             id="path78"
             style="fill:#525252;fill-opacity:1;fill-rule:nonzero;stroke:none"
             d="M 0,0 C 0.211,2.658 0.496,7.248 0.634,11.968 0.259,11.382 -0.099,10.829 -0.42,10.342 -0.452,9.477 -0.486,8.801 -0.524,7.963 -0.883,8.228 -1.156,8.498 -1.468,8.851 -1.694,8.531 -1.899,8.248 -2.082,8.007 -1.607,7.502 -1.151,7.109 -0.581,6.77 -0.603,6.316 -0.626,5.87 -0.65,5.436 -1.295,5.808 -1.993,6.279 -2.767,7.11 -2.931,6.947 -3.153,6.934 -3.229,6.934 c -0.444,0 -0.998,0.93 -1.653,2.788 -0.296,0.829 -0.533,1.489 -0.729,1.975 -0.327,0.792 -0.618,1.31 -0.871,1.553 -0.106,0.102 -0.234,0.17 -0.366,0.229 C -5.817,7.695 -2.51,5.247 -0.712,4.331 -0.809,2.653 -0.91,1.182 -0.997,0.079 c -0.035,-0.438 0.136,-0.866 0.478,-1.259 0.181,0.284 0.353,0.586 0.516,0.911 0.012,0.024 0.022,0.043 0.033,0.066 C 0.007,-0.137 -0.005,-0.069 0,0" /></g><g
           transform="translate(47.6169,44.2498)"
           id="g80"><path
             id="path82"
             style="fill:#525252;fill-opacity:1;fill-rule:nonzero;stroke:none"
             d="m 0,0 c 0.109,-2.362 0.204,-5.484 0.204,-9.218 0,-8.727 -0.518,-14.145 -0.526,-14.247 0,-0.646 -0.459,-1.214 -1.091,-1.348 l -14.566,-3.099 c -0.431,-0.094 -0.868,0.021 -1.199,0.312 -0.329,0.288 -0.497,0.704 -0.462,1.141 0.02,0.262 0.042,0.541 0.064,0.832 -0.242,-0.439 -0.518,-0.974 -0.814,-1.587 -0.032,-0.063 -0.068,-0.115 -0.1,-0.176 0.01,-0.027 0.013,-0.057 0.024,-0.084 -0.018,0.011 -0.033,0.024 -0.052,0.034 -0.161,-0.305 -0.328,-0.599 -0.506,-0.871 0.71,-0.435 1.603,-0.711 2.355,-0.711 0.187,0 0.364,0.016 0.527,0.051 l -0.009,0.041 c 0.126,0.006 0.253,0.013 0.38,0.04 l 14.567,3.099 c 1.09,0.232 1.882,1.211 1.88,2.278 0.005,0.054 0.528,5.515 0.528,14.295 0,4.387 -0.131,7.945 -0.262,10.409 C 0.624,0.796 0.315,0.396 0,0" /></g><g
           transform="translate(22.3993,31.8385)"
           id="g84"><path
             id="path86"
             style="fill:#525252;fill-opacity:1;fill-rule:nonzero;stroke:none"
             d="m 0,0 c -0.146,0.954 -0.236,1.99 -0.236,3.142 0,6.036 2.744,10.383 5.477,12.115 C 5.264,14.867 5.287,14.47 5.31,14.065 2.477,11.508 0.786,7.467 0.786,3.152 c 0,-3.415 0.86,-6.346 2.36,-8.387 0.173,0.235 0.382,0.528 0.627,0.882 -1.253,1.861 -1.987,4.499 -1.987,7.505 0,4.962 2.196,8.1 3.592,9.594 0.159,-3.159 0.274,-6.582 0.274,-9.633 0,-1.51 -0.028,-3.121 -0.074,-4.743 0.271,0.421 0.556,0.869 0.872,1.37 0.057,0.09 0.111,0.175 0.168,0.265 0.021,1.062 0.034,2.108 0.034,3.108 0,5.535 -0.376,12.294 -0.704,16.491 0.21,0.287 0.419,0.552 0.634,0.802 C 6.583,20.388 6.579,20.372 6.58,20.355 6.894,16.398 7.42,8.907 7.42,3.193 7.42,2.563 7.413,1.909 7.401,1.243 7.747,1.787 8.085,2.318 8.419,2.84 c 0,0.117 10e-4,0.238 10e-4,0.353 0,5.748 -0.528,13.269 -0.843,17.241 -0.034,0.436 0.134,0.852 0.463,1.141 0.046,0.04 0.103,0.059 0.153,0.092 0.129,0.062 0.247,0.133 0.39,0.185 0.118,0.033 0.238,0.066 0.362,0.066 0.098,0 0.196,-0.01 0.293,-0.031 L 19.986,19.6 c 0.26,0.307 0.513,0.585 0.764,0.861 L 9.446,22.866 C 8.864,22.989 8.279,22.888 7.777,22.601 6.542,22.022 5.794,21.096 5.03,20.043 L 4.921,19.893 4.936,19.71 C 5.014,18.729 5.095,17.595 5.173,16.368 2.055,14.682 -1.236,9.885 -1.236,3.142 -1.236,2.19 -1.175,1.314 -1.077,0.489 -0.669,0.42 -0.308,0.25 0,0" /></g><g
           transform="translate(48.2953,49.2783)"
           id="g88"><path
             id="path90"
             style="fill:#525252;fill-opacity:1;fill-rule:nonzero;stroke:none"
             d="M 0,0 C 0,1.116 -0.792,2.094 -1.883,2.327 L -4.006,2.778 C -4.26,2.513 -4.521,2.224 -4.786,1.922 L -2.092,1.348 C -1.459,1.214 -1,0.646 -0.998,-0.048 c 0.003,-0.026 0.12,-1.261 0.242,-3.465 0.312,0.388 0.619,0.779 0.933,1.165 C 0.081,-0.832 0.001,-0.002 0,0" /></g></g></g></g></svg>