<?xml version="1.0" encoding="UTF-8" standalone="no"?>
<svg
   xmlns:dc="http://purl.org/dc/elements/1.1/"
   xmlns:cc="http://creativecommons.org/ns#"
   xmlns:rdf="http://www.w3.org/1999/02/22-rdf-syntax-ns#"
   xmlns:svg="http://www.w3.org/2000/svg"
   xmlns="http://www.w3.org/2000/svg"
   viewBox="0 0 94.488136 94.487198"
   height="94.487198"
   width="94.488136"
   xml:space="preserve"
   id="svg2"
   version="1.1"><metadata
     id="metadata8"><rdf:RDF><cc:Work
         rdf:about=""><dc:format>image/svg+xml</dc:format><dc:type
           rdf:resource="http://purl.org/dc/dcmitype/StillImage" /></cc:Work></rdf:RDF></metadata><defs
     id="defs6"><clipPath
       id="clipPath18"
       clipPathUnits="userSpaceOnUse"><path
         id="path16"
         d="M 0,70.865 H 70.866 V 0 H 0 Z" /></clipPath></defs><g
     transform="matrix(1.3333333,0,0,-1.3333333,0,94.4872)"
     id="g10"><g
       id="g12"><g
         clip-path="url(#clipPath18)"
         id="g14"><g
           transform="translate(35.4331,1.8726)"
           id="g20"><path
             id="path22"
             style="fill:#525252;fill-opacity:1;fill-rule:nonzero;stroke:none"
             d="m 0,0 c -18.505,0 -33.56,15.055 -33.56,33.56 0,18.505 15.055,33.56 33.56,33.56 18.505,0 33.56,-15.055 33.56,-33.56 C 33.56,15.055 18.505,0 0,0 m 0,68.993 c -19.538,0 -35.433,-15.895 -35.433,-35.433 0,-19.538 15.895,-35.433 35.433,-35.433 19.538,0 35.433,15.895 35.433,35.433 0,19.538 -15.895,35.433 -35.433,35.433" /></g><g
           transform="translate(52.8937,22.6672)"
           id="g24"><path
             id="path26"
             style="fill:#525252;fill-opacity:1;fill-rule:nonzero;stroke:none"
             d="m 0,0 c -3.094,-3.978 -7.55,-6.929 -12.856,-8.05 -5.955,-1.256 -11.866,0.025 -16.604,3.109 l -1.523,1.09 c -3.979,3.094 -6.93,7.55 -8.049,12.855 -1.249,5.919 -0.013,11.84 3.096,16.614 l 1.089,1.524 c 2.033,2.605 4.662,4.791 7.805,6.311 l 7.783,-15.546 c 0.191,-0.381 0.614,-0.585 1.031,-0.496 0.416,0.087 0.721,0.445 0.742,0.87 l 0.838,17.366 c 4.144,-0.143 8.007,-1.428 11.285,-3.559 l 1.526,-1.086 C 0.161,27.888 3.083,23.412 4.198,18.128 5.455,12.173 4.174,6.261 1.09,1.523 Z m -16.929,37.527 c -0.202,0.005 -0.61,0.005 -0.61,0.005 -0.498,0.001 -0.911,-0.392 -0.936,-0.891 L -19.184,21.942 -25.773,35.1 c -0.224,0.447 -0.76,0.64 -1.217,0.437 0,0 -0.443,-0.197 -0.663,-0.3 -10.082,-4.763 -15.514,-15.708 -13.212,-26.619 1.289,-6.107 4.813,-11.179 9.534,-14.546 0.004,-0.003 0.006,-0.007 0.01,-0.01 0.005,-0.004 0.01,-0.004 0.015,-0.007 5.27,-3.748 12.026,-5.373 18.837,-3.936 6.11,1.289 11.184,4.812 14.551,9.535 0.001,0.002 0.001,0.003 0.002,0.005 10e-4,0.001 0.003,0.001 0.004,0.003 10e-4,0.001 10e-4,0.003 0.002,0.005 C 5.842,4.938 7.469,11.7 6.031,18.514 3.716,29.48 -5.724,37.299 -16.929,37.527" /></g><g
           transform="translate(57.9194,37.1333)"
           id="g28"><path
             id="path30"
             style="fill:#525252;fill-opacity:1;fill-rule:nonzero;stroke:none"
             d="m 0,0 h -4.705 c -0.517,0 -0.936,-0.419 -0.936,-0.936 0,-0.517 0.419,-0.937 0.936,-0.937 h 4.706 z" /></g><g
           transform="translate(12.9457,35.2607)"
           id="g32"><path
             id="path34"
             style="fill:#525252;fill-opacity:1;fill-rule:nonzero;stroke:none"
             d="m 0,0 h 4.686 c 0.517,0 0.937,0.419 0.937,0.936 0,0.517 -0.42,0.937 -0.937,0.937 H 0.004 Z" /></g><g
           transform="translate(36.3596,13.803)"
           id="g36"><path
             id="path38"
             style="fill:#525252;fill-opacity:1;fill-rule:nonzero;stroke:none"
             d="m 0,0 v 4.686 c 0,0.517 -0.419,0.936 -0.936,0.936 -0.517,0 -0.937,-0.419 -0.937,-0.936 V 0.004 Z" /></g></g></g></g></svg>