<?xml version="1.0" encoding="UTF-8" standalone="no"?>
<svg
   xmlns:dc="http://purl.org/dc/elements/1.1/"
   xmlns:cc="http://creativecommons.org/ns#"
   xmlns:rdf="http://www.w3.org/1999/02/22-rdf-syntax-ns#"
   xmlns:svg="http://www.w3.org/2000/svg"
   xmlns="http://www.w3.org/2000/svg"
   viewBox="0 0 359.05466 774.55731"
   height="774.55731"
   width="359.05466"
   xml:space="preserve"
   id="svg2"
   version="1.1"><metadata
     id="metadata8"><rdf:RDF><cc:Work
         rdf:about=""><dc:format>image/svg+xml</dc:format><dc:type
           rdf:resource="http://purl.org/dc/dcmitype/StillImage" /></cc:Work></rdf:RDF></metadata><defs
     id="defs6"><clipPath
       id="clipPath18"
       clipPathUnits="userSpaceOnUse"><path
         id="path16"
         d="M 0,0 H 269.292 V 580.918 H 0 Z" /></clipPath><clipPath
       id="clipPath26"
       clipPathUnits="userSpaceOnUse"><path
         id="path24"
         d="M -261.283,587.918 H 278.291 V -1.00002 h -539.574 z" /></clipPath></defs><g
     transform="matrix(1.3333333,0,0,-1.3333333,0,774.55733)"
     id="g10"><g
       id="g12"><g
         clip-path="url(#clipPath18)"
         id="g14"><g
           id="g20"><g
             id="g22" /><g
             id="g34"><g
               style="opacity:0.10000598"
               id="g32"
               clip-path="url(#clipPath26)"><g
                 id="g30"
                 transform="translate(42.0969,573.2144)"><path
                   id="path28"
                   style="fill:#ffffff;fill-opacity:1;fill-rule:nonzero;stroke:none"
                   d="m 0,0 c -22.904,5.11 -46.141,7.703 -69.047,7.703 -97.27,0 -161.482,-46.722 -162.119,-47.194 l -1.231,-0.925 25.675,-41.315 1.429,0.9 c 51.109,32.338 107.693,39.118 146.139,39.118 26.555,0 44.318,-3.286 44.426,-3.307 149.021,-32.875 180.278,-164.912 180.564,-166.265 25.654,-105.131 2.791,-173.439 -20.905,-212.229 -7.104,-11.623 -14.665,-21.189 -21.957,-29.207 L -9.935,-340.97 c 10.617,-2.813 21.301,-4.243 31.941,-4.243 55.066,0 91.051,37.051 92.897,39.041 52.911,76.631 -15.652,147.699 -16.354,148.404 l -2.596,2.648 -114.262,-136.29 c 19.849,84.139 -32.93,121.023 -33.086,121.068 -16.265,15.674 -38.951,23.62 -67.419,23.62 -14.013,0 -27.289,-1.938 -38.418,-4.297 31.842,22.947 68.57,34.886 110.191,34.886 73.2,0 135.102,-37.029 135.719,-37.403 l 2.285,2.362 c -14.881,22.73 -60.428,75.608 -161.7,75.608 -12.048,0 -19.433,-0.857 -19.807,-0.9 -185.005,-28.962 -201.095,-205.842 -201.228,-207.536 -12.464,-96.295 22.114,-160.383 53.331,-197.205 33.808,-39.887 71.134,-57.242 71.419,-57.362 42.889,-22.982 86.788,-34.645 130.489,-34.645 99.93,0 166.538,61.475 167.086,61.99 143.128,111.936 85.118,313.337 84.501,315.361 C 165.374,-31.16 1.562,-0.286 0,0 m -194.324,-335.155 c -27.39,-37.803 -22.953,-77.045 -15.297,-102.029 -72.107,99.886 -9.82,217.183 -9.124,218.448 6.456,10.462 13.414,19.854 20.608,28.727 l 126.76,-107.138 c -11.32,2.516 -22.377,3.79 -32.995,3.79 -60.671,0 -88.831,-40.159 -89.952,-41.798 m 159.24,-191.29 c -67.19,-0.011 -119.535,36.205 -132.761,46.242 l 107.57,129.991 c -21.103,-80.489 35.875,-125.047 36.601,-125.585 18.245,-12.784 40.163,-19.258 65.133,-19.258 12.245,0 23.606,1.601 33.549,3.682 -34.645,-23.209 -71.611,-35.072 -110.092,-35.072" /></g></g></g></g></g></g></g></svg>