<?xml version="1.0" encoding="UTF-8" standalone="no"?>
<svg
   xmlns:dc="http://purl.org/dc/elements/1.1/"
   xmlns:cc="http://creativecommons.org/ns#"
   xmlns:rdf="http://www.w3.org/1999/02/22-rdf-syntax-ns#"
   xmlns:svg="http://www.w3.org/2000/svg"
   xmlns="http://www.w3.org/2000/svg"
   viewBox="0 0 269.57333 109.92"
   height="109.92"
   width="269.57333"
   xml:space="preserve"
   id="svg2"
   version="1.1"><metadata
     id="metadata8"><rdf:RDF><cc:Work
         rdf:about=""><dc:format>image/svg+xml</dc:format><dc:type
           rdf:resource="http://purl.org/dc/dcmitype/StillImage" /></cc:Work></rdf:RDF></metadata><defs
     id="defs6"><clipPath
       id="clipPath20"
       clipPathUnits="userSpaceOnUse"><path
         id="path18"
         d="M 0,0 H 2021.82 V 824 H 0 Z" /></clipPath></defs><g
     transform="matrix(1.3333333,0,0,-1.3333333,0,109.92)"
     id="g10"><g
       transform="scale(0.1)"
       id="g12"><g
         id="g14"><g
           clip-path="url(#clipPath20)"
           id="g16"><path
             id="path22"
             style="fill:#0d9669;fill-opacity:1;fill-rule:nonzero;stroke:none"
             d="m 1978.95,628.195 c -21.12,0.059 -38.28,17.157 -38.37,38.364 0.09,21.097 17.25,38.226 38.37,38.25 21.15,-0.024 38.28,-17.153 38.28,-38.25 0,-21.207 -17.13,-38.305 -38.28,-38.364 z m 0,81.207 c -23.7,0 -42.88,-19.164 -42.88,-42.843 0,-23.735 19.18,-42.926 42.88,-42.957 23.7,0.031 42.87,19.222 42.87,42.957 0,23.679 -19.17,42.843 -42.87,42.843" /><path
             id="path24"
             style="fill:#0d9669;fill-opacity:1;fill-rule:nonzero;stroke:none"
             d="M 123.703,327.348 245.895,475.59 c -34.536,-92.125 32.21,-141.637 32.21,-141.637 37.543,-26.801 83.711,-20.012 110.465,-12.449 -130.578,-96.77 -252.554,-4.047 -264.867,5.844 z m -50.6014,268.07 c 8.0351,12.793 16.4492,24.109 25.1367,34.184 L 97.3164,627.656 240.086,506.723 C 145.719,535.531 103.098,473.266 103.098,473.266 68.75,425.844 84.8164,376.395 94.3477,355.621 2.13672,462.121 73.1016,595.418 73.1016,595.418 Z M 299.996,816.559 C 160.66,847.691 63.9141,776.234 63.9141,776.234 l 25.3203,-39.129 c 88.6676,56.372 195.7926,36.864 195.7926,36.864 155.442,-34.621 186.575,-171.66 186.575,-171.66 33.14,-136.973 -11.934,-214.422 -47.164,-251.672 l -150.922,127.25 c 81.746,-33.375 140.496,28.808 140.496,28.808 54.125,77.125 -16.133,147.446 -16.133,147.446 l -125.5,-148.579 c 31.105,95.61 -27.617,135.907 -27.617,135.907 -34.774,32.285 -89.797,23.527 -117.989,16.054 116.739,95.008 264.188,4.668 264.188,4.668 -59.828,90.997 -183.063,76.082 -183.063,76.082 C 16.6172,708.27 2.86328,527.449 2.86328,527.449 -22.457,337.391 128.395,268.262 128.395,268.262 c 175.058,-93.266 304.023,27.64 304.023,27.64 147.469,115.235 85.23,321.407 85.23,321.407 -51.777,169.336 -217.652,199.25 -217.652,199.25" /><path
             id="path26"
             style="fill:#0d9669;fill-opacity:1;fill-rule:nonzero;stroke:none"
             d="m 856.262,659.867 h -79.45 L 712.961,558.816 650.152,659.867 h -82.91 L 670.305,491.312 561.43,319.012 h 82.91 l 66.203,106.48 65.109,-106.48 H 862.02 L 753.195,494.094 856.262,659.867" /><path
             id="path28"
             style="fill:#0d9669;fill-opacity:1;fill-rule:nonzero;stroke:none"
             d="m 1045.16,414.57 c -5.35,-20.359 -13.8,-31.105 -13.8,-31.105 -21.61,-24.211 -43.192,-24.211 -59.919,-16.16 -14.687,7.113 -25.293,20.75 -25.293,20.75 -27.078,54.133 -2.011,105.992 -2.011,105.992 l 7.765,10.383 c 48.318,45.793 85.178,-11.575 85.178,-11.575 15.96,-25.855 13.7,-57.105 8.08,-78.285 z m 1.17,153.176 c 0,0 -74.889,28.805 -112.857,-34.57 v 38.054 h -63.371 l 2.324,-348.964 h 62.129 l 0.027,127.742 c 0,0 27.672,-42.567 89.858,-36.781 0,0 88.72,11.484 89.86,130.093 0,0 2.29,97.969 -67.97,124.426" /><path
             id="path30"
             style="fill:#0d9669;fill-opacity:1;fill-rule:nonzero;stroke:none"
             d="m 1305.15,468.957 h -103.92 l 0.56,7.172 c 0,0 0.6,16.726 12.68,30.848 0,0 19.62,23.339 54.39,14.746 0,0 38.9,-6.977 36.29,-52.766 z m -11.76,104.539 c -81.24,21.324 -127.88,-29.969 -127.88,-29.969 -45.49,-48.316 -29.95,-135.304 -29.95,-135.304 8.11,-61.649 63.37,-83.512 63.37,-83.512 70.21,-32.231 131.86,7.457 131.86,7.457 32.29,20.16 39.15,60.512 39.15,60.512 h -69.07 c -5.76,-23.028 -27.05,-27.133 -27.05,-27.133 -29.97,-9.731 -50.67,8.109 -50.67,8.109 -25.98,19.024 -22.52,53.559 -22.52,53.559 l 171.04,0.57 0.57,28.238 c -2.3,96.18 -78.85,117.473 -78.85,117.473" /><path
             id="path32"
             style="fill:#0d9669;fill-opacity:1;fill-rule:nonzero;stroke:none"
             d="m 1398.7,319.523 h 67.42 v 340.938 h -66.77 l -0.65,-340.938" /><path
             id="path34"
             style="fill:#0d9669;fill-opacity:1;fill-rule:nonzero;stroke:none"
             d="m 1746.52,602.309 h 66.832 v 62.8047 h -66.832 z" /><path
             id="path36"
             style="fill:#0d9669;fill-opacity:1;fill-rule:nonzero;stroke:none"
             d="m 1747.15,320.09 h 66.832 v 252.301 h -66.832 z" /><path
             id="path38"
             style="fill:#0d9669;fill-opacity:1;fill-rule:nonzero;stroke:none"
             d="m 1918.78,530.316 v 41.454 h -63.94 V 320.09 h 65.64 v 144.523 c 0,0 5.19,61.676 80.56,46.699 v 66.782 c 0,0 -53.48,8.078 -82.26,-47.778" /><path
             id="path40"
             style="fill:#0d9669;fill-opacity:1;fill-rule:nonzero;stroke:none"
             d="m 1643.48,411.707 c 0,0 -6.86,-36.269 -36.29,-48.43 0,0 -33.4,-14.941 -52.37,8.106 0,0 -24.73,42.023 35.13,55.832 0,0 37.97,8.082 48.37,13.84 l 3.49,2.265 c 0,0 4.57,-10.347 1.67,-31.613 z m 61.02,-58.75 v 157.766 c -2.26,49.589 -58.69,61.668 -58.69,61.668 -80.62,22.429 -125.53,-19.055 -125.53,-19.055 -28.24,-27.047 -26.51,-63.316 -26.51,-63.316 h 62.75 c 8.11,36.863 41.51,34.539 41.51,34.539 48.35,1.73 46.08,-28.211 46.08,-28.211 -1.19,-23.621 -46.08,-24.754 -46.08,-24.754 -92.7,-2.301 -109.96,-54.16 -109.96,-54.16 -24.84,-74.829 40.18,-99.043 40.18,-99.043 68.59,-25.911 118.13,30.476 118.13,30.476 v -28.211 h 78.25 c -17.18,6.383 -20.13,32.301 -20.13,32.301" /><path
             id="path42"
             style="fill:#0d9669;fill-opacity:1;fill-rule:nonzero;stroke:none"
             d="m 1985.72,671.52 c -1.01,-0.536 -2.65,-0.793 -4.7,-0.793 h -10.55 v 12.621 h 10.78 c 2.01,0 3.54,-0.203 4.62,-0.825 1.73,-0.988 2.61,-2.89 2.61,-5.726 0,-2.637 -0.91,-4.395 -2.76,-5.277 z m 11.46,-23.082 c -0.17,0.796 -0.22,2.214 -0.22,4.343 v 3.172 c 0,3.266 -0.52,5.703 -1.37,7.348 -0.9,1.586 -2.38,2.804 -4.5,3.656 2.49,0.879 4.37,2.406 5.41,4.594 1.2,2.156 1.75,4.371 1.75,6.578 0,1.812 -0.31,3.488 -0.87,4.906 -0.62,1.445 -1.38,2.809 -2.38,3.969 -1.17,1.418 -2.67,2.582 -4.4,3.234 -1.7,0.735 -4.11,1.219 -7.34,1.219 h -22.31 v -46.844 h 9.52 v 18.321 h 9.62 c 2.66,0 4.53,-0.454 5.58,-1.477 0.96,-0.996 1.45,-2.98 1.5,-5.953 l 0.12,-4.34 c 0,-1.363 0.14,-2.726 0.33,-4.059 0.12,-0.644 0.34,-1.414 0.69,-2.492 h 10.63 v 1.192 c -0.87,0.539 -1.5,1.445 -1.76,2.633" /><path
             id="path44"
             style="fill:#0d9669;fill-opacity:1;fill-rule:nonzero;stroke:none"
             d="M 104.605,40.8203 92.2109,68.0781 H 91.8398 L 79.7031,40.8203 Z M 51.0781,14.4297 89.6133,97.8125 c 0.3711,0.7422 0.9883,1.3633 2.1094,1.3633 h 1.2304 c 1.2422,0 1.7383,-0.6211 2.1094,-1.3633 L 133.227,14.4297 c 0.742,-1.6133 -0.254,-3.2227 -2.11,-3.2227 h -10.781 c -1.856,0 -2.727,0.7422 -3.594,2.4766 L 110.68,27.0664 H 73.6289 L 67.5547,13.6836 C 67.0664,12.4453 65.9414,11.207 63.9688,11.207 H 53.1875 c -1.8633,0 -2.8516,1.6094 -2.1094,3.2227" /><path
             id="path46"
             style="fill:#0d9669;fill-opacity:1;fill-rule:nonzero;stroke:none"
             d="m 164.73,95.582 c 0,1.2383 1.114,2.3594 2.356,2.3594 h 11.523 c 1.231,0 2.352,-1.1211 2.352,-2.3594 V 13.5586 c 0,-1.2383 -1.121,-2.3516 -2.352,-2.3516 h -11.523 c -1.242,0 -2.356,1.1133 -2.356,2.3516 V 95.582" /><path
             id="path48"
             style="fill:#0d9669;fill-opacity:1;fill-rule:nonzero;stroke:none"
             d="m 261.891,58.4141 c 6.558,0 12.261,5.6992 12.261,12.6367 0,6.5664 -5.703,12.0156 -12.261,12.0156 h -20.2 V 58.4141 Z M 225.465,95.582 c 0,1.2383 0.984,2.3594 2.351,2.3594 h 35.43 c 14.871,0 27.012,-11.8945 27.012,-26.6406 0,-11.4024 -7.559,-20.6953 -18.34,-25.0313 l 16.98,-31.4687 c 0.864,-1.6133 0,-3.5938 -2.105,-3.5938 h -13.012 c -1.121,0 -1.734,0.6211 -1.98,1.1133 l -16.485,32.8359 h -13.75 V 13.5586 c 0,-1.2383 -1.113,-2.3516 -2.351,-2.3516 h -11.399 c -1.367,0 -2.351,1.1133 -2.351,2.3516 V 95.582" /><path
             id="path50"
             style="fill:#0d9669;fill-opacity:1;fill-rule:nonzero;stroke:none"
             d="m 476.566,95.582 c 0,1.2383 1.114,2.3594 2.356,2.3594 h 11.766 c 1.367,0 2.355,-1.1211 2.355,-2.3594 V 44.9062 c 0,-10.5312 7.187,-18.832 17.969,-18.832 10.781,0 18.086,8.3008 18.086,18.711 V 95.582 c 0,1.2383 0.996,2.3594 2.351,2.3594 h 11.778 c 1.23,0 2.351,-1.1211 2.351,-2.3594 V 44.0391 c 0,-18.8321 -15,-34.07426 -34.566,-34.07426 -19.453,0 -34.446,15.24216 -34.446,34.07426 V 95.582" /><path
             id="path52"
             style="fill:#0d9669;fill-opacity:1;fill-rule:nonzero;stroke:none"
             d="m 623.422,40.8203 -12.395,27.2578 h -0.371 L 598.52,40.8203 Z m -53.524,-26.3906 38.536,83.3828 c 0.371,0.7422 0.984,1.3633 2.097,1.3633 h 1.242 c 1.239,0 1.739,-0.6211 2.11,-1.3633 l 38.164,-83.3828 c 0.738,-1.6133 -0.254,-3.2227 -2.109,-3.2227 h -10.786 c -1.851,0 -2.722,0.7422 -3.59,2.4766 l -6.066,13.3828 h -37.051 l -6.074,-13.3828 c -0.488,-1.2383 -1.601,-2.4766 -3.594,-2.4766 h -10.769 c -1.867,0 -2.856,1.6094 -2.11,3.2227" /><path
             id="path54"
             style="fill:#0d9669;fill-opacity:1;fill-rule:nonzero;stroke:none"
             d="m 683.551,95.582 c 0,1.2383 0.984,2.3594 2.351,2.3594 h 11.399 c 1.238,0 2.351,-1.1211 2.351,-2.3594 V 26.0742 h 31.59 c 1.367,0 2.356,-1.1133 2.356,-2.3515 V 13.5586 c 0,-1.2383 -0.989,-2.3516 -2.356,-2.3516 h -45.34 c -1.367,0 -2.351,1.1133 -2.351,2.3516 V 95.582" /><path
             id="path56"
             style="fill:#0d9669;fill-opacity:1;fill-rule:nonzero;stroke:none"
             d="m 765.109,95.582 c 0,1.2383 1.118,2.3594 2.356,2.3594 h 11.523 c 1.231,0 2.356,-1.1211 2.356,-2.3594 V 13.5586 c 0,-1.2383 -1.125,-2.3516 -2.356,-2.3516 h -11.523 c -1.238,0 -2.356,1.1133 -2.356,2.3516 V 95.582" /><path
             id="path58"
             style="fill:#0d9669;fill-opacity:1;fill-rule:nonzero;stroke:none"
             d="m 834.379,83.0664 h -18.953 c -1.367,0 -2.356,1.1172 -2.356,2.3594 V 95.582 c 0,1.2383 0.989,2.3594 2.356,2.3594 h 54.14 c 1.368,0 2.352,-1.1211 2.352,-2.3594 V 85.4258 c 0,-1.2422 -0.984,-2.3594 -2.352,-2.3594 H 850.609 V 13.5586 c 0,-1.2383 -1.113,-2.3516 -2.351,-2.3516 h -11.524 c -1.242,0 -2.355,1.1133 -2.355,2.3516 v 69.5078" /><path
             id="path60"
             style="fill:#0d9669;fill-opacity:1;fill-rule:nonzero;stroke:none"
             d="m 923.246,52.9609 -28.254,41.3868 c -0.992,1.6093 0,3.5937 1.985,3.5937 h 12.636 c 0.996,0 1.614,-0.6211 1.985,-1.1211 l 19.824,-28.4961 19.82,28.4961 c 0.371,0.5 0.996,1.1211 1.985,1.1211 h 12.761 c 1.985,0 2.973,-1.9844 1.985,-3.5937 L 939.352,53.0859 V 13.5586 c 0,-1.2383 -1.118,-2.3516 -2.356,-2.3516 h -11.394 c -1.368,0 -2.356,1.1133 -2.356,2.3516 v 39.4023" /><path
             id="path62"
             style="fill:#0d9669;fill-opacity:1;fill-rule:nonzero;stroke:none"
             d="m 1035.92,95.582 c 0,1.2383 1.12,2.3594 2.36,2.3594 h 11.52 c 1.23,0 2.35,-1.1211 2.35,-2.3594 V 13.5586 c 0,-1.2383 -1.12,-2.3516 -2.35,-2.3516 h -11.52 c -1.24,0 -2.36,1.1133 -2.36,2.3516 V 95.582" /><path
             id="path64"
             style="fill:#0d9669;fill-opacity:1;fill-rule:nonzero;stroke:none"
             d="m 1094.17,96.9453 c 0,1.2383 1.12,2.2305 2.36,2.2305 h 3.09 l 51.55,-54.7617 h 0.12 V 95.582 c 0,1.2383 0.99,2.3594 2.36,2.3594 h 11.39 c 1.24,0 2.36,-1.1211 2.36,-2.3594 V 12.1992 c 0,-1.2422 -1.12,-2.23436 -2.36,-2.23436 h -2.98 l -51.78,56.87106 h -0.13 V 13.5586 c 0,-1.2383 -0.99,-2.3516 -2.35,-2.3516 h -11.27 c -1.24,0 -2.36,1.1133 -2.36,2.3516 v 83.3867" /><path
             id="path66"
             style="fill:#0d9669;fill-opacity:1;fill-rule:nonzero;stroke:none"
             d="m 1207.08,96.9453 c 0,1.2383 1.12,2.2305 2.36,2.2305 h 3.09 l 51.55,-54.7617 h 0.12 V 95.582 c 0,1.2383 0.99,2.3594 2.36,2.3594 h 11.39 c 1.24,0 2.36,-1.1211 2.36,-2.3594 V 12.1992 c 0,-1.2422 -1.12,-2.23436 -2.36,-2.23436 h -2.98 l -51.78,56.87106 h -0.13 V 13.5586 c 0,-1.2383 -0.99,-2.3516 -2.35,-2.3516 h -11.27 c -1.24,0 -2.36,1.1133 -2.36,2.3516 v 83.3867" /><path
             id="path68"
             style="fill:#0d9669;fill-opacity:1;fill-rule:nonzero;stroke:none"
             d="m 1354.68,26.0742 c 15.62,0 28.5,12.7656 28.5,28.375 0,15.6094 -12.88,28.6172 -28.5,28.6172 -15.61,0 -28.37,-13.0078 -28.37,-28.6172 0,-15.6094 12.76,-28.375 28.37,-28.375 z m 0,73.1016 c 24.78,0 44.6,-19.9453 44.6,-44.7266 0,-24.7812 -19.82,-44.48436 -44.6,-44.48436 -24.77,0 -44.48,19.70316 -44.48,44.48436 0,24.7813 19.71,44.7266 44.48,44.7266" /><path
             id="path70"
             style="fill:#0d9669;fill-opacity:1;fill-rule:nonzero;stroke:none"
             d="m 1415.42,94.7188 c -0.74,1.6093 0.25,3.2226 2.11,3.2226 h 12.64 c 1.11,0 1.86,-0.75 2.1,-1.3672 l 23.79,-53.2773 h 0.87 l 23.79,53.2773 c 0.25,0.6172 0.99,1.3672 2.11,1.3672 h 12.63 c 1.86,0 2.85,-1.6133 2.11,-3.2226 l -38.41,-83.3907 c -0.37,-0.7422 -0.99,-1.36326 -2.11,-1.36326 h -1.24 c -1.11,0 -1.72,0.62106 -2.1,1.36326 l -38.29,83.3907" /><path
             id="path72"
             style="fill:#0d9669;fill-opacity:1;fill-rule:nonzero;stroke:none"
             d="m 1564.02,40.8203 -12.39,27.2578 h -0.38 l -12.13,-27.2578 z m -53.53,-26.3906 38.54,83.3828 c 0.37,0.7422 0.98,1.3633 2.11,1.3633 h 1.23 c 1.24,0 1.74,-0.6211 2.11,-1.3633 l 38.16,-83.3828 c 0.74,-1.6133 -0.25,-3.2227 -2.11,-3.2227 h -10.78 c -1.86,0 -2.72,0.7422 -3.59,2.4766 l -6.07,13.3828 h -37.05 l -6.07,-13.3828 c -0.49,-1.2383 -1.61,-2.4766 -3.59,-2.4766 h -10.78 c -1.86,0 -2.85,1.6094 -2.11,3.2227" /><path
             id="path74"
             style="fill:#0d9669;fill-opacity:1;fill-rule:nonzero;stroke:none"
             d="m 1632.93,83.0664 h -18.95 c -1.37,0 -2.35,1.1172 -2.35,2.3594 V 95.582 c 0,1.2383 0.98,2.3594 2.35,2.3594 h 54.14 c 1.37,0 2.35,-1.1211 2.35,-2.3594 V 85.4258 c 0,-1.2422 -0.98,-2.3594 -2.35,-2.3594 h -18.96 V 13.5586 c 0,-1.2383 -1.11,-2.3516 -2.35,-2.3516 h -11.52 c -1.24,0 -2.36,1.1133 -2.36,2.3516 v 69.5078" /><path
             id="path76"
             style="fill:#0d9669;fill-opacity:1;fill-rule:nonzero;stroke:none"
             d="m 1707.31,95.582 c 0,1.2383 1.11,2.3594 2.35,2.3594 h 11.53 c 1.23,0 2.35,-1.1211 2.35,-2.3594 V 13.5586 c 0,-1.2383 -1.12,-2.3516 -2.35,-2.3516 h -11.53 c -1.24,0 -2.35,1.1133 -2.35,2.3516 V 95.582" /><path
             id="path78"
             style="fill:#0d9669;fill-opacity:1;fill-rule:nonzero;stroke:none"
             d="m 1802.73,26.0742 c 15.61,0 28.49,12.7656 28.49,28.375 0,15.6094 -12.88,28.6172 -28.49,28.6172 -15.62,0 -28.37,-13.0078 -28.37,-28.6172 0,-15.6094 12.75,-28.375 28.37,-28.375 z m 0,73.1016 c 24.77,0 44.6,-19.9453 44.6,-44.7266 0,-24.7812 -19.83,-44.48436 -44.6,-44.48436 -24.78,0 -44.48,19.70316 -44.48,44.48436 0,24.7813 19.7,44.7266 44.48,44.7266" /><path
             id="path80"
             style="fill:#0d9669;fill-opacity:1;fill-rule:nonzero;stroke:none"
             d="m 1876.99,96.9453 c 0,1.2383 1.11,2.2305 2.35,2.2305 h 3.1 l 51.54,-54.7617 h 0.13 V 95.582 c 0,1.2383 0.98,2.3594 2.35,2.3594 h 11.4 c 1.24,0 2.35,-1.1211 2.35,-2.3594 V 12.1992 c 0,-1.2422 -1.11,-2.23436 -2.35,-2.23436 h -2.98 l -51.79,56.87106 h -0.13 V 13.5586 c 0,-1.2383 -0.98,-2.3516 -2.35,-2.3516 h -11.27 c -1.24,0 -2.35,1.1133 -2.35,2.3516 v 83.3867" /><path
             id="path82"
             style="fill:#0d9669;fill-opacity:1;fill-rule:nonzero;stroke:none"
             d="M 440.355,3.71484 427.141,25.2422 c -0.371,0.7422 -1.485,1.2344 -1.969,1.2344 h -13.137 c -1.984,0 -3.105,-1.9805 -1.984,-3.7149 L 423.266,1.23438 C 423.637,0.492188 424.75,0 425.238,0 h 13.137 c 1.98,0 3.105,1.98047 1.98,3.71484" /><path
             id="path84"
             style="fill:#0d9669;fill-opacity:1;fill-rule:nonzero;stroke:none"
             d="m 403.551,25.832 c -15.617,0 -28.496,13.0078 -28.496,28.6172 0,2.043 0.242,4.0274 0.66,5.9492 2.75,12.8282 14.14,22.668 27.719,22.668 15.613,0 28.496,-13.0078 28.496,-28.6172 0,-2.043 -0.246,-4.0273 -0.664,-5.9492 -2.75,-12.8281 -14.141,-22.668 -27.715,-22.668 z m 42.121,14.7891 c 0.305,0.9453 0.629,1.8789 0.871,2.8516 0.289,1.1015 0.527,2.2265 0.734,3.3593 0.418,2.4844 0.754,5.0078 0.754,7.6172 0,6.1914 -1.238,12.082 -3.48,17.4336 -6.711,15.9805 -22.434,27.0469 -41,27.0469 -1.485,0 -3.598,-0.125 -5.578,-0.3711 l -0.039,0.0664 c -5.375,-0.6641 -10.399,-2.2383 -14.985,-4.6289 -10.179,-5.668 -17.965,-14.8516 -21.64,-25.7188 -0.305,-0.9492 -0.629,-1.8789 -0.871,-2.8515 -0.29,-1.1055 -0.528,-2.2266 -0.735,-3.3594 -0.418,-2.4844 -0.754,-5.0078 -0.754,-7.6172 0,-6.1914 1.239,-12.082 3.481,-17.4336 6.711,-15.9804 22.433,-27.05076 41.004,-27.05076 1.484,0 3.589,0.12896 5.574,0.37106 l 0.039,-0.0625 c 5.375,0.6641 10.398,2.2383 14.984,4.6289 10.184,5.668 17.965,14.8516 21.641,25.7188" /></g></g></g></g></svg>